<svg width="129" height="129" viewBox="0 0 129 129" fill="none" xmlns="http://www.w3.org/2000/svg">
<g opacity="0.2" clip-path="url(#clip0_185_12)">
<path d="M128.669 64.1027L100.061 56.3547C99.0015 50.2623 96.3527 44.6997 92.6442 40.1304L96.9487 32.6473C97.0149 32.5149 97.0149 32.3162 96.8824 32.1838C96.75 32.0513 96.5513 32.0513 96.4189 32.1176L89.1345 36.2895C84.499 32.0513 78.8039 29.0051 72.4466 27.6807L64.8973 0.264887C64.8311 0.132444 64.6987 0 64.5 0C64.3013 0 64.1689 0.132444 64.1027 0.264887L56.6196 27.8794C50.461 29.3362 44.8984 32.3824 40.4615 36.6206L32.6473 32.1176C32.5149 32.0513 32.3162 32.0513 32.1838 32.1838C32.0513 32.3162 32.0513 32.5149 32.1176 32.6473L36.7531 40.6602C33.3095 45.097 30.8593 50.3285 29.7998 56.0898L0.264887 64.1027C0.132444 64.1689 0 64.3013 0 64.5C0 64.6987 0.132444 64.8311 0.264887 64.8973L30.7269 73.175C32.25 78.0092 34.7002 82.3799 37.9451 86.0883L32.0513 96.3527C31.9851 96.4851 31.9851 96.6838 32.1176 96.8162C32.25 96.9487 32.4487 96.9487 32.5811 96.8824L43.0441 90.9225C46.6863 93.77 50.9245 95.8891 55.4938 97.1473L64.0364 128.735C64.1027 128.934 64.2351 129 64.4338 129C64.6324 129 64.7649 128.868 64.8311 128.735L73.3737 97.346C78.1417 96.154 82.5123 94.0349 86.3532 91.1874L96.3527 96.8824C96.4851 96.9487 96.6838 96.9487 96.8162 96.8162C96.9487 96.6838 96.9487 96.4851 96.8824 96.3527L91.3198 86.6843C94.8296 82.7772 97.5447 78.1417 99.134 72.9764L128.669 64.8973C128.868 64.8311 128.934 64.6987 128.934 64.5C129 64.3013 128.868 64.1689 128.669 64.1027ZM99.0678 56.0898L85.5585 52.4476L92.1145 40.9913C95.558 45.2957 98.0082 50.3948 99.0678 56.0898ZM99.73 62.5796C99.73 63.0431 99.73 63.5729 99.6638 64.0364H82.1812L81.1217 60.1294L85.1612 53.1099L99.2664 56.9507C99.5313 58.8049 99.73 60.6591 99.73 62.5796ZM39.0046 85.8896L44.2361 76.8172L50.0637 78.4066L40.7926 87.6776C40.1304 87.0816 39.5344 86.4856 39.0046 85.8896ZM30.0647 62.5796C30.0647 60.5929 30.2633 58.6063 30.5945 56.6858L43.8388 53.1099L47.8783 60.1294L46.8188 64.0364H30.1309C30.0647 63.5729 30.0647 63.1093 30.0647 62.5796ZM40.6602 37.614L52.1828 44.2361L50.5934 50.0637L39.4682 38.8722C39.8655 38.4748 40.2628 38.0113 40.6602 37.614ZM89.9292 38.4748L78.3404 50.0637L76.751 44.2361L88.7372 37.3491C89.2007 37.6802 89.598 38.0775 89.9292 38.4748ZM65.4271 64.1027L73.0426 56.4872L77.4132 64.1027H65.4271ZM77.4795 64.8973L73.1088 72.5128L65.4271 64.8973H77.4795ZM73.7048 55.8912L78.0092 51.5868L80.327 60.0631L78.2079 63.7053L73.7048 55.8912ZM73.1088 55.2952L65.2947 50.7921L68.9369 48.673L77.4132 50.9908L73.1088 55.2952ZM64.8973 50.1299V47.6134L67.8773 48.4081L64.8973 50.1299ZM72.5128 55.8912L64.8973 63.5067V51.5205L72.5128 55.8912ZM72.5128 73.1088L64.8973 77.4795V65.4271L72.5128 73.1088ZM65.2947 78.1417L73.1088 73.6386L77.4132 77.943L68.9369 80.2608L65.2947 78.1417ZM67.8111 80.5257L64.8311 81.3203V78.8039L67.8111 80.5257ZM73.7048 73.1088L78.2079 65.2947L80.327 68.9369L78.0092 77.4132L73.7048 73.1088ZM80.7906 69.9302L84.3003 76.0888L78.6715 77.6119L80.7906 69.9302ZM80.5257 67.8111L78.8039 64.8311H81.3203L80.5257 67.8111ZM78.8701 64.1027L80.5919 61.1227L81.3866 64.1027H78.8701ZM78.7377 51.3881L84.3665 52.9112L80.8568 59.0698L78.7377 51.3881ZM78.9363 50.5934L90.5252 39.0708C90.9225 39.4682 91.2536 39.8655 91.5847 40.3291L84.7639 52.249L78.9363 50.5934ZM77.6119 50.2623L69.9302 48.2094L76.0888 44.6997L77.6119 50.2623ZM68.8044 47.8783L64.8973 46.8188V27.8131C67.2151 27.8131 69.4666 28.078 71.7182 28.4754L75.8901 43.8388L68.8044 47.8783ZM51.5205 64.1027L55.8912 56.4872L63.5067 64.1027H51.5205ZM63.5067 64.8973L55.8912 72.5128L51.5205 64.8973H63.5067ZM55.8912 55.2952L51.5868 50.9908L60.0631 48.673L63.7053 50.7921L55.8912 55.2952ZM55.2952 55.8912L50.7921 63.7053L48.673 60.0631L50.9908 51.5868L55.2952 55.8912ZM48.1432 59.0698L44.6335 52.9112L50.2623 51.3881L48.1432 59.0698ZM48.4081 61.1227L50.1299 64.1027H47.6134L48.4081 61.1227ZM50.1299 64.8973L48.4081 67.8773L47.6134 64.8973H50.1299ZM50.2623 77.6119L44.6335 76.0888L48.1432 69.9302L50.2623 77.6119ZM48.7392 68.9369L50.8583 65.2947L55.3614 73.1088L51.057 77.4132L48.7392 68.9369ZM55.8912 73.7048L63.7053 78.2079L60.0631 80.327L51.5868 78.0092L55.8912 73.7048ZM64.1027 78.8701V81.3866L61.1227 80.5919L64.1027 78.8701ZM56.4209 73.1088L64.0364 65.4933V77.4795L56.4209 73.1088ZM56.4209 55.8912L64.0364 51.5205V63.5067L56.4209 55.8912ZM61.1227 48.4081L64.1027 47.6134V50.1299L61.1227 48.4081ZM60.1294 47.8783L53.1099 43.8388L57.2156 28.674C59.4009 28.1443 61.7187 27.8794 64.0364 27.8131V46.8188L60.1294 47.8783ZM59.0698 48.1432L51.3881 50.1961L52.9112 44.5672L59.0698 48.1432ZM50.0637 50.5934L44.2361 52.1828L37.7464 40.8588C38.1437 40.3953 38.5411 39.9317 38.9384 39.4682L50.0637 50.5934ZM46.8188 64.8973L47.8783 68.8044L43.8388 75.8239L31.5216 72.4466C30.7931 69.9964 30.3296 67.48 30.1309 64.8311H46.8188V64.8973ZM50.5934 78.9363L52.1828 84.7639L43.2428 89.8629C42.5806 89.3332 41.9184 88.8034 41.3224 88.2074L50.5934 78.9363ZM51.3881 78.7377L59.0698 80.7906L52.9112 84.3003L51.3881 78.7377ZM60.1294 81.1217L64.0364 82.1812V97.4122C61.3214 97.346 58.6725 97.0149 56.0898 96.3527L53.0436 85.1612L60.1294 81.1217ZM64.8973 82.1812L68.8044 81.1217L75.8239 85.1612L72.7115 96.5513C70.1951 97.1473 67.5462 97.4784 64.8311 97.4784V82.1812H64.8973ZM69.9302 80.7906L77.6119 78.7377L76.0888 84.3665L69.9302 80.7906ZM78.3404 78.9363L88.0087 88.6047C87.4127 89.1345 86.8167 89.6643 86.1545 90.1278L76.8172 84.7639L78.3404 78.9363ZM78.9363 78.3404L84.7639 76.751L90.2603 86.3532C89.7305 86.9492 89.2007 87.479 88.6047 88.0087L78.9363 78.3404ZM81.1217 68.8044L82.1812 64.8973H99.6638C99.5313 67.4138 99.0678 69.9302 98.4055 72.2479L85.2274 75.8239L81.1217 68.8044ZM92.0482 39.4682C91.7171 39.1371 91.4523 38.7397 91.1212 38.4086L94.6309 34.8989L92.0482 39.4682ZM94.1011 34.3029L90.5914 37.8126C90.2603 37.4815 89.9292 37.1504 89.6643 36.8855L94.1011 34.3029ZM88.2074 36.7531L76.6186 43.4415L72.5791 28.674C78.4728 29.9985 83.8368 32.846 88.2074 36.7531ZM64.8973 3.44353L71.4533 27.482C69.3342 27.0847 67.1489 26.886 64.8973 26.886V3.44353ZM64.1027 3.44353V26.9523C61.8511 27.0185 59.6658 27.2834 57.5467 27.6807L64.1027 3.44353ZM56.3547 28.8727L52.3814 43.4415L41.2562 37.0842C45.4944 33.1771 50.6596 30.2633 56.3547 28.8727ZM39.8655 37.1504C39.5344 37.4815 39.1371 37.8788 38.806 38.21L34.8989 34.3029L39.8655 37.1504ZM34.3029 34.8326L38.2762 38.806C37.9451 39.2033 37.614 39.6006 37.2829 39.9979L34.3029 34.8326ZM37.2166 41.521L43.4415 52.3814L30.7269 55.825C31.7864 50.5272 34.038 45.693 37.2166 41.521ZM29.6011 56.9507C29.3362 58.8049 29.1376 60.6591 29.1376 62.5796C29.1376 63.0431 29.1376 63.5729 29.2038 64.0364H3.44353L29.6011 56.9507ZM3.44353 64.8973H29.27C29.4025 67.4138 29.866 69.864 30.5282 72.2479L3.44353 64.8973ZM31.7864 73.4399L43.4415 76.6186L38.4748 85.2936C35.4949 81.7839 33.2433 77.8106 31.7864 73.4399ZM38.5411 86.6843C39.0708 87.2141 39.6006 87.7438 40.1304 88.2736L34.3029 94.1011L38.5411 86.6843ZM34.8326 94.6971L40.6602 88.8696C41.1899 89.3994 41.7859 89.8629 42.3819 90.3927L34.8326 94.6971ZM43.905 90.3927L52.3814 85.5585L55.229 96.0878C51.1232 94.8958 47.2823 92.9091 43.905 90.3927ZM56.4209 97.2798C58.8711 97.8758 61.4538 98.2069 64.1027 98.2731V125.49L56.4209 97.2798ZM64.8973 125.556V98.3393C67.48 98.3393 70.0626 98.0744 72.5128 97.5447L64.8973 125.556ZM73.6386 96.2864L76.5524 85.4923L85.4923 90.5914C81.9826 93.2402 78.0092 95.1607 73.6386 96.2864ZM87.0154 90.5914C87.5452 90.1278 88.1412 89.6643 88.6709 89.2007L94.1011 94.6309L87.0154 90.5914ZM94.6971 94.1011L89.2669 88.6709C89.7967 88.2074 90.2603 87.6776 90.7238 87.2141L94.6971 94.1011ZM90.8563 85.8234L85.5585 76.6186L98.0744 73.2413C96.5513 77.8768 94.1011 82.1812 90.8563 85.8234ZM99.3326 71.9831C99.9286 69.6653 100.326 67.3475 100.525 64.8973H125.556L99.3326 71.9831ZM100.591 64.1027C100.591 63.6391 100.657 63.1093 100.657 62.6458C100.657 60.7916 100.525 59.0036 100.26 57.2156L125.623 64.1027H100.591Z" fill="url(#paint0_linear_185_12)"/>
</g>
<defs>
<linearGradient id="paint0_linear_185_12" x1="64.4755" y1="0" x2="64.4755" y2="129" gradientUnits="userSpaceOnUse">
<stop stop-color="#B7A97F" stop-opacity="0.7"/>
<stop offset="0.390625" stop-color="#ECDDB1"/>
<stop offset="1" stop-color="#564B2E" stop-opacity="0.5"/>
</linearGradient>
<clipPath id="clip0_185_12">
<rect width="129" height="129" fill="white"/>
</clipPath>
</defs>
</svg>
