<svg width="21" height="21" viewBox="0 0 21 21" fill="none" xmlns="http://www.w3.org/2000/svg">
<path d="M10.5944 1.84908C13.3379 1.84908 13.6628 1.86111 14.7417 1.90924C15.7445 1.95336 16.286 2.12182 16.647 2.26221C17.1243 2.44672 17.4692 2.67133 17.8262 3.02831C18.1872 3.3893 18.4078 3.73024 18.5923 4.20755C18.7327 4.56854 18.9012 5.11404 18.9453 6.11278C18.9934 7.19575 19.0055 7.52065 19.0055 10.2602C19.0055 13.0037 18.9934 13.3286 18.9453 14.4076C18.9012 15.4103 18.7327 15.9518 18.5923 16.3128C18.4078 16.7901 18.1832 17.135 17.8262 17.492C17.4652 17.853 17.1243 18.0736 16.647 18.2581C16.286 18.3985 15.7405 18.567 14.7417 18.6111C13.6588 18.6592 13.3339 18.6713 10.5944 18.6713C7.85083 18.6713 7.52594 18.6592 6.44698 18.6111C5.44422 18.567 4.90274 18.3985 4.54174 18.2581C4.06443 18.0736 3.71949 17.849 3.36251 17.492C3.00152 17.131 2.78091 16.7901 2.5964 16.3128C2.45602 15.9518 2.28756 15.4063 2.24344 14.4076C2.1953 13.3246 2.18327 12.9997 2.18327 10.2602C2.18327 7.51663 2.1953 7.19174 2.24344 6.11278C2.28756 5.11003 2.45602 4.56854 2.5964 4.20755C2.78091 3.73024 3.00553 3.38529 3.36251 3.02831C3.7235 2.66732 4.06443 2.44672 4.54174 2.26221C4.90274 2.12182 5.44823 1.95336 6.44698 1.90924C7.52594 1.86111 7.85083 1.84908 10.5944 1.84908ZM10.5944 0C7.80671 0 7.45775 0.012033 6.36274 0.0601652C5.27175 0.108297 4.52169 0.284782 3.87191 0.537475C3.19404 0.802202 2.62047 1.15116 2.05091 1.72473C1.47733 2.2943 1.12837 2.86787 0.863647 3.54172C0.610954 4.19552 0.434469 4.94157 0.386337 6.03256C0.338205 7.13158 0.326172 7.48054 0.326172 10.2682C0.326172 13.0558 0.338205 13.4048 0.386337 14.4998C0.434469 15.5908 0.610954 16.3409 0.863647 16.9906C1.12837 17.6685 1.47733 18.2421 2.05091 18.8116C2.62047 19.3812 3.19404 19.7342 3.86789 19.9949C4.52169 20.2476 5.26774 20.4241 6.35873 20.4722C7.45374 20.5203 7.8027 20.5324 10.5903 20.5324C13.378 20.5324 13.727 20.5203 14.822 20.4722C15.913 20.4241 16.663 20.2476 17.3128 19.9949C17.9867 19.7342 18.5602 19.3812 19.1298 18.8116C19.6994 18.2421 20.0523 17.6685 20.313 16.9947C20.5657 16.3409 20.7422 15.5948 20.7903 14.5038C20.8385 13.4088 20.8505 13.0599 20.8505 10.2722C20.8505 7.48455 20.8385 7.13559 20.7903 6.04058C20.7422 4.94959 20.5657 4.19953 20.313 3.54974C20.0603 2.86787 19.7114 2.2943 19.1378 1.72473C18.5683 1.15517 17.9947 0.802202 17.3208 0.541486C16.667 0.288793 15.921 0.112308 14.83 0.0641762C13.731 0.012033 13.382 0 10.5944 0Z" fill="white"/>
<path d="M10.5945 4.99399C7.68255 4.99399 5.32007 7.35647 5.32007 10.2685C5.32007 13.1805 7.68255 15.5429 10.5945 15.5429C13.5065 15.5429 15.869 13.1805 15.869 10.2685C15.869 7.35647 13.5065 4.99399 10.5945 4.99399ZM10.5945 13.6899C8.70536 13.6899 7.17316 12.1577 7.17316 10.2685C7.17316 8.37928 8.70536 6.84707 10.5945 6.84707C12.4837 6.84707 14.0159 8.37928 14.0159 10.2685C14.0159 12.1577 12.4837 13.6899 10.5945 13.6899Z" fill="white"/>
<path d="M17.309 4.78476C17.309 5.46663 16.7554 6.01614 16.0776 6.01614C15.3957 6.01614 14.8462 5.46262 14.8462 4.78476C14.8462 4.10288 15.3997 3.55338 16.0776 3.55338C16.7554 3.55338 17.309 4.1069 17.309 4.78476Z" fill="white"/>
</svg>
