<svg width="303" height="80" viewBox="0 0 303 80" fill="none" xmlns="http://www.w3.org/2000/svg">
<path d="M87 52H88.6595H90.6403H91.5503L99.4732 31.0643L107.45 52H108.36H109.912H112L101.722 26H97.2784L87 52Z" fill="white"/>
<path d="M121.38 47.5622V26H117.939H117V47.5622V52H117.939H121.38H134V47.5622H121.38Z" fill="white"/>
<path d="M157.749 43.512C156.198 46.4398 152.981 48.5 149.247 48.5C143.962 48.5 139.711 44.4879 139.711 39.5C139.711 34.512 143.962 30.5 149.247 30.5C152.694 30.5 155.681 32.2349 157.404 34.8916L161.483 32.5602C158.955 28.6566 154.474 26 149.304 26C141.434 26 135 32.0181 135 39.5C135 46.9819 141.377 53 149.304 53C154.877 53 159.645 49.9639 162 45.5723L157.749 43.512Z" fill="white"/>
<path d="M181.258 26V36.8072H169.798V26H165V52H169.798V41.1928H181.258V52H186V26H181.258Z" fill="white"/>
<path d="M208 30.4378V26H194.65H190V30.4378V36.8072V41.1928V47.5622V52H194.65H208V47.5622H194.65V41.1928H208V36.8072H194.65V30.4378H208Z" fill="white"/>
<path d="M233.238 26L226.028 46.3092L219.042 26.0522L212 26V26.5743V52H216.695V33.4137L223.513 52H228.431L235.25 33.0482V52H240V26.5743V26H233.238Z" fill="white"/>
<rect x="244" y="26" width="5" height="26" fill="white"/>
<path d="M297.117 26H289.096H284.417H276.117V30.4378H284.417V52H289.096V30.4378H297.117V26Z" fill="white"/>
<path d="M268.328 45.1679C268.328 44.0139 267.943 43.0797 267.064 42.4752C266.24 41.8158 264.757 41.2113 262.614 40.5518C260.472 39.8924 258.769 39.178 257.45 38.4087C255.033 36.87 253.769 34.8916 253.769 32.4187C253.769 30.2755 254.648 28.4621 256.406 27.0882C258.164 25.7144 260.472 25 263.274 25C265.141 25 266.79 25.3297 268.273 26.0441C269.701 26.7036 270.855 27.6927 271.734 28.9567C272.558 30.2206 272.998 31.6494 272.998 33.1881H268.383C268.383 31.8142 267.943 30.7152 267.064 29.8909C266.185 29.1215 264.922 28.6819 263.329 28.6819C261.79 28.6819 260.637 29.0116 259.812 29.671C258.988 30.3305 258.549 31.2097 258.549 32.3638C258.549 33.3529 258.988 34.1772 259.922 34.8367C260.856 35.4961 262.34 36.1556 264.427 36.7601C266.515 37.3645 268.163 38.0789 269.427 38.8483C270.69 39.6176 271.624 40.5518 272.174 41.541C272.778 42.5851 273.053 43.7392 273.053 45.113C273.053 47.3661 272.174 49.1246 270.471 50.4435C268.767 51.7624 266.46 52.4218 263.493 52.4218C261.57 52.4218 259.757 52.0371 258.164 51.3227C256.516 50.6083 255.252 49.6192 254.373 48.3552C253.494 47.0913 253 45.6076 253 43.959H257.67C257.67 45.4977 258.164 46.6517 259.153 47.476C260.142 48.3003 261.57 48.7399 263.493 48.7399C265.087 48.7399 266.35 48.4102 267.119 47.7508C267.943 47.1463 268.328 46.267 268.328 45.1679Z" fill="white"/>
<path opacity="0.7" d="M11.7901 59.4379L35.0741 18.829L58.0031 59.4379L70 60L35.216 0L1 59.4379H11.7901Z" fill="url(#paint0_linear_150_53)"/>
<path d="M70 20.035L34.9646 0L0 19.965V20.035V20.5254V59.1243V59.7548V60.035L0.566229 60.3853L11.6785 66.69L35.0354 80L70 60.035V59.8249V59.3345V20.1751V20.035ZM11.6077 39.8599L4.10516 52.7496C2.47725 48.8266 1.55713 44.4834 1.55713 40C1.55713 35.4466 2.47725 31.0333 4.17594 27.0403L11.6077 39.8599ZM3.04348 24.0981C3.46815 24.6585 3.9636 25.1489 4.38827 25.7093C4.31749 25.8494 4.24671 25.9895 4.24671 26.1296L3.04348 24.0981ZM46.8554 20.035L39.2821 7.07531C48.4833 8.2662 56.4813 13.0298 61.7897 20.035H46.8554ZM62.1436 20.5254C63.4884 22.4168 64.6916 24.4483 65.6825 26.5499L58.18 39.4396L47.1385 20.5254H62.1436ZM57.8261 40L49.1203 54.9212C42.3964 52.6795 34.8938 49.4571 27.3205 44.6935C25.7634 43.7128 24.3478 42.8021 22.9323 41.7513C23.7108 40.7706 24.4186 39.7198 25.1264 38.669C29.3023 32.4343 31.7796 26.1996 33.2659 20.5254H46.5015L57.8261 40ZM12.2447 39.8599L14.5804 35.8669C16.9161 37.8984 19.4641 39.9299 22.2952 41.8914C20.5966 44.1331 18.7563 46.0946 16.9869 47.9159L12.2447 39.8599ZM16.4914 48.3363C12.8109 51.9089 9.13043 54.641 5.9454 56.6025C5.37917 55.5517 4.81294 54.5009 4.31749 53.38L11.8908 40.4203L16.4914 48.3363ZM14.7927 35.4466L23.4985 20.5954H32.8413C31.3549 26.1296 28.9484 32.2242 24.9141 38.3187C24.1355 39.4396 23.3569 40.4904 22.5784 41.5412C19.7472 39.5096 17.1284 37.4781 14.7927 35.4466ZM22.6491 42.1716C23.9939 43.1524 25.4095 44.063 26.8959 44.9737C34.5399 49.8074 42.0425 53.0998 48.908 55.3415L46.6431 59.2644H23.5693L17.1992 48.3363C19.0394 46.5149 20.8797 44.4834 22.6491 42.1716ZM32.912 20.035H23.7816L31.3549 7.00525C32.4874 6.86515 33.6198 6.7951 34.8231 6.7951C34.6815 10.4378 34.186 14.9912 32.912 20.035ZM23.1446 20.035H8.28109C13.5895 13.0998 21.5875 8.2662 30.7179 7.07531L23.1446 20.035ZM22.8615 20.5254L14.368 35.0263C10.6168 31.7338 7.43175 28.4413 4.81294 25.4991C5.66228 23.7478 6.65318 22.0665 7.85642 20.5254H22.8615ZM14.1557 35.5166L11.9616 39.3695L4.38827 26.4799C4.45905 26.3398 4.52983 26.1296 4.60061 25.9895C7.21941 29.0018 10.4044 32.2242 14.1557 35.5166ZM4.17594 53.6602C4.67139 54.711 5.16684 55.6918 5.73306 56.6725C4.03438 57.7233 2.40647 58.5639 1.13246 59.2644H0.849343L4.17594 53.6602ZM5.9454 57.0928C6.37007 57.8634 6.86552 58.5639 7.36097 59.2644H2.05258C3.18504 58.704 4.52983 58.0035 5.9454 57.0928ZM6.22851 56.9527C9.41355 54.9912 13.094 52.3292 16.7745 48.7566L22.9323 59.3345H7.78564C7.21941 58.4939 6.65318 57.7233 6.22851 56.9527ZM23.2154 59.8249L30.8595 72.9247C21.5875 71.8039 13.4479 66.9002 8.13953 59.8249H23.2154ZM23.8524 59.8249H46.2892L38.5743 72.9947C37.3711 73.1348 36.1678 73.2049 34.9646 73.2049C33.7614 73.2049 32.6289 73.1348 31.4965 72.9947L23.8524 59.8249ZM46.9262 59.8249H61.9312C56.6228 66.9002 48.5541 71.7338 39.2821 72.9247L46.9262 59.8249ZM47.2093 59.2644L49.4034 55.4816C54.2164 57.0228 58.6754 58.1436 62.5682 58.8441C62.4975 58.9842 62.3559 59.1243 62.2851 59.2644H47.2093ZM49.6158 55.0613L58.1092 40.4904L65.6117 53.38C64.8332 55.1313 63.913 56.8827 62.7806 58.4238C58.9585 57.7233 54.4995 56.6725 49.6158 55.0613ZM62.9221 58.9142C63.6299 59.0543 64.2669 59.1243 64.9747 59.2644H62.7098C62.7098 59.1944 62.8514 59.0543 62.9221 58.9142ZM63.2053 58.4939C64.1962 56.9527 65.1163 55.3415 65.8948 53.7303L69.1507 59.3345H68.3013C66.7442 59.0543 65.0455 58.8441 63.2053 58.4939ZM58.4631 40L65.8948 27.1804C67.5935 31.1033 68.5136 35.4466 68.5136 40C68.5136 44.5534 67.5935 48.8266 65.8948 52.8196L58.4631 40ZM65.8241 26.2697C64.9039 24.2382 63.7715 22.3468 62.4975 20.5254H69.1507L65.8241 26.2697ZM69.0799 20.035H62.2144C56.7644 12.8897 48.5541 7.91594 39.0698 6.7951L35.6724 1.05079L69.0799 20.035ZM38.4328 6.72504C37.4419 6.65499 36.3802 6.58494 35.3893 6.58494C35.4601 4.48336 35.3893 2.73205 35.3185 1.40105L38.4328 6.72504ZM35.3893 6.86515C36.5217 6.86515 37.5834 6.9352 38.6451 7.07531L46.2184 20.1051H33.4783C34.7523 14.9912 35.2477 10.4378 35.3893 6.86515ZM34.8231 6.51489C33.6906 6.51489 32.6289 6.58494 31.5672 6.65499L34.8231 1.12084C34.8938 2.52189 34.8938 4.34326 34.8231 6.51489ZM34.2568 1.05079L30.9302 6.7951C21.5167 7.91594 13.3064 12.8897 7.85642 20.035H0.9909L34.2568 1.05079ZM7.50253 20.5254C6.44085 21.9965 5.44995 23.6077 4.67138 25.2189C3.46815 23.8879 2.40647 22.5569 1.48635 21.296L0.9909 20.4553H7.50253V20.5254ZM0.49545 58.8441V21.0158C0.566228 21.1559 0.707786 21.2259 0.778564 21.366L3.9636 26.7601C2.19414 30.8231 1.20324 35.3065 1.20324 40C1.20324 44.6235 2.19414 49.1068 3.89282 53.0998L0.49545 58.8441ZM0.849343 59.8949C0.920121 59.8949 0.9909 59.8249 1.06168 59.8249H7.71486C13.1648 67.1103 21.5167 72.1541 31.0718 73.275L34.4692 79.1594L0.849343 59.8949ZM35.0354 79.0193L31.7088 73.275C32.7705 73.345 33.9029 73.4151 34.9646 73.4151C36.0971 73.4151 37.2295 73.345 38.362 73.275L35.0354 79.0193ZM68.0182 60.5254L35.6724 79.0193L39.0698 73.2049C48.5541 72.0841 56.906 67.0403 62.2851 59.7548H68.0182H68.5136H69.363L68.0182 60.5254ZM69.5045 58.9142L66.178 53.1699C67.9474 49.1068 68.8675 44.6935 68.8675 40.0701C68.8675 35.3765 67.8766 30.9632 66.178 26.9002L69.5753 21.1559V58.9142H69.5045Z" fill="url(#paint1_linear_150_53)"/>
<defs>
<linearGradient id="paint0_linear_150_53" x1="35.5" y1="0" x2="35.5" y2="60" gradientUnits="userSpaceOnUse">
<stop stop-color="#126944"/>
<stop offset="1" stop-color="#123530"/>
</linearGradient>
<linearGradient id="paint1_linear_150_53" x1="35" y1="0" x2="35" y2="80" gradientUnits="userSpaceOnUse">
<stop stop-color="#DDC680"/>
<stop offset="0.526042" stop-color="#ECDDB1"/>
<stop offset="1" stop-color="#564B2E"/>
</linearGradient>
</defs>
</svg>
