<svg width="1919" height="262" viewBox="0 0 1919 262" fill="none" xmlns="http://www.w3.org/2000/svg">
<g opacity="0.04">
<path d="M85.8975 6.09998H0.497463V256H33.7475V156.6H85.8975C110.397 156.95 130.347 149.95 146.097 135.6C161.497 121.25 169.197 103.4 169.197 81.35C169.197 59.3 161.497 41.45 146.097 27.1C130.697 13.1 110.747 6.09998 85.8975 6.09998ZM82.3975 128.6H33.7475V34.1H82.3975C100.247 34.1 113.547 38.3 122.647 46.35C131.397 54.75 135.947 66.3 135.947 81.35C135.947 96.4 131.397 108.3 122.647 116.35C113.547 124.75 100.247 128.95 82.3975 128.6ZM319.741 0.149998C280.541 0.149998 249.041 12.75 225.591 37.95C202.141 63.5 190.241 94.3 190.241 131.05C190.241 167.8 202.141 198.6 225.591 223.8C249.041 249.35 280.541 261.95 319.741 261.95C358.941 261.95 390.441 249.35 413.891 223.8C437.341 198.6 449.241 167.8 449.241 131.05C449.241 94.3 437.341 63.5 413.891 37.95C390.441 12.75 358.941 0.149998 319.741 0.149998ZM319.741 233.95C289.991 233.95 266.541 223.8 249.391 203.5C232.241 183.2 223.491 159.05 223.491 131.05C223.491 103.05 232.241 78.9 249.391 58.6C266.541 38.3 289.991 28.15 319.741 28.15C349.491 28.15 372.941 38.3 390.091 58.6C407.241 78.9 415.991 103.05 415.991 131.05C415.991 159.05 407.241 183.2 390.091 203.5C372.941 223.8 349.491 233.95 319.741 233.95ZM659.351 198.95C654.101 181.8 648.851 168.85 642.901 159.75C636.951 151 628.901 145.05 619.101 142.25C634.851 138.4 647.101 130.35 656.551 118.1C666.001 105.85 670.551 92.2 670.551 77.15C670.551 56.5 663.201 39.35 648.851 26.05C634.151 12.75 613.151 6.09998 585.851 6.09998H489.951V256H523.201V153.8H574.651C588.301 153.8 598.801 157.3 605.801 164.3C612.451 171.65 618.401 182.15 623.651 196.15C625.401 200.7 627.151 207 629.601 215.4C632.051 224.15 634.501 231.5 636.951 238.15C639.401 244.8 642.201 250.75 645.701 256H683.501V252.5C679.301 247.25 675.801 241.65 673.001 235.7C669.851 229.75 667.751 224.5 666.351 219.95C664.601 215.4 662.501 208.4 659.351 198.95ZM523.201 125.8V34.1H582.351C618.751 34.1 636.951 48.45 636.951 77.15C636.951 92.2 632.401 104.1 623.651 112.85C614.901 121.6 601.601 125.8 584.451 125.8H523.201ZM882.145 6.09998H695.595V34.1H772.245V256H805.495V34.1H882.145V6.09998ZM1069.83 34.1V6.09998H915.829V256H949.079V142.95H1059.68V114.95H949.079V34.1H1069.83ZM1221.74 0.149998C1182.54 0.149998 1151.04 12.75 1127.59 37.95C1104.14 63.5 1092.24 94.3 1092.24 131.05C1092.24 167.8 1104.14 198.6 1127.59 223.8C1151.04 249.35 1182.54 261.95 1221.74 261.95C1260.94 261.95 1292.44 249.35 1315.89 223.8C1339.34 198.6 1351.24 167.8 1351.24 131.05C1351.24 94.3 1339.34 63.5 1315.89 37.95C1292.44 12.75 1260.94 0.149998 1221.74 0.149998ZM1221.74 233.95C1191.99 233.95 1168.54 223.8 1151.39 203.5C1134.24 183.2 1125.49 159.05 1125.49 131.05C1125.49 103.05 1134.24 78.9 1151.39 58.6C1168.54 38.3 1191.99 28.15 1221.74 28.15C1251.49 28.15 1274.94 38.3 1292.09 58.6C1309.24 78.9 1317.99 103.05 1317.99 131.05C1317.99 159.05 1309.24 183.2 1292.09 203.5C1274.94 223.8 1251.49 233.95 1221.74 233.95ZM1425.2 228V6.09998H1391.95V256H1546.65V228H1425.2ZM1584.45 6.09998V256H1617.7V6.09998H1584.45ZM1790.49 0.149998C1751.29 0.149998 1719.79 12.75 1696.34 37.95C1672.89 63.5 1660.99 94.3 1660.99 131.05C1660.99 167.8 1672.89 198.6 1696.34 223.8C1719.79 249.35 1751.29 261.95 1790.49 261.95C1829.69 261.95 1861.19 249.35 1884.64 223.8C1908.09 198.6 1919.99 167.8 1919.99 131.05C1919.99 94.3 1908.09 63.5 1884.64 37.95C1861.19 12.75 1829.69 0.149998 1790.49 0.149998ZM1790.49 233.95C1760.74 233.95 1737.29 223.8 1720.14 203.5C1702.99 183.2 1694.24 159.05 1694.24 131.05C1694.24 103.05 1702.99 78.9 1720.14 58.6C1737.29 38.3 1760.74 28.15 1790.49 28.15C1820.24 28.15 1843.69 38.3 1860.84 58.6C1877.99 78.9 1886.74 103.05 1886.74 131.05C1886.74 159.05 1877.99 183.2 1860.84 203.5C1843.69 223.8 1820.24 233.95 1790.49 233.95Z" fill="white"/>
<path d="M0.497463 6.09998V5.09998H-0.502537V6.09998H0.497463ZM0.497463 256H-0.502537V257H0.497463V256ZM33.7475 256V257H34.7475V256H33.7475ZM33.7475 156.6V155.6H32.7475V156.6H33.7475ZM85.8975 156.6L85.9118 155.6L85.9046 155.6H85.8975V156.6ZM146.097 135.6L146.771 136.339L146.779 136.332L146.097 135.6ZM146.097 27.1L146.779 26.3683L146.77 26.36L146.097 27.1ZM82.3975 128.6L82.4171 127.6L82.4073 127.6H82.3975V128.6ZM33.7475 128.6H32.7475V129.6H33.7475V128.6ZM33.7475 34.1V33.1H32.7475V34.1H33.7475ZM122.647 46.35L123.34 45.6286L123.325 45.6145L123.31 45.601L122.647 46.35ZM122.647 116.35L121.97 115.614L121.969 115.615L122.647 116.35ZM85.8975 5.09998H0.497463V7.09998H85.8975V5.09998ZM-0.502537 6.09998V256H1.49746V6.09998H-0.502537ZM0.497463 257H33.7475V255H0.497463V257ZM34.7475 256V156.6H32.7475V256H34.7475ZM33.7475 157.6H85.8975V155.6H33.7475V157.6ZM85.8832 157.6C110.598 157.953 130.806 150.885 146.771 136.339L145.424 134.861C129.889 149.015 110.197 155.947 85.9118 155.6L85.8832 157.6ZM146.779 136.332C162.389 121.786 170.197 103.668 170.197 81.35H168.197C168.197 103.132 160.606 120.714 145.416 134.868L146.779 136.332ZM170.197 81.35C170.197 59.0322 162.389 40.914 146.779 26.3684L145.416 27.8316C160.606 41.9859 168.197 59.5678 168.197 81.35H170.197ZM146.77 26.36C131.153 12.1625 110.947 5.09998 85.8975 5.09998V7.09998C110.548 7.09998 130.242 14.0375 145.425 27.8399L146.77 26.36ZM82.3975 127.6H33.7475V129.6H82.3975V127.6ZM34.7475 128.6V34.1H32.7475V128.6H34.7475ZM33.7475 35.1H82.3975V33.1H33.7475V35.1ZM82.3975 35.1C100.102 35.1 113.13 39.2661 121.985 47.099L123.31 45.601C113.965 37.3339 100.393 33.1 82.3975 33.1V35.1ZM121.955 47.0714C130.472 55.2475 134.947 66.5167 134.947 81.35H136.947C136.947 66.0832 132.323 54.2524 123.34 45.6286L121.955 47.0714ZM134.947 81.35C134.947 96.197 130.464 107.8 121.97 115.614L123.325 117.086C132.331 108.8 136.947 96.603 136.947 81.35H134.947ZM121.969 115.615C113.122 123.782 100.11 127.947 82.4171 127.6L82.3779 129.6C100.385 129.953 113.973 125.718 123.326 117.085L121.969 115.615ZM225.591 37.95L224.859 37.2687L224.854 37.2738L225.591 37.95ZM225.591 223.8L226.328 223.124L226.323 223.119L225.591 223.8ZM413.891 223.8L413.159 223.119L413.154 223.124L413.891 223.8ZM413.891 37.95L414.628 37.2738L414.623 37.2688L413.891 37.95ZM249.391 203.5L248.627 204.145L248.627 204.145L249.391 203.5ZM249.391 58.6L250.155 59.2453L250.155 59.2453L249.391 58.6ZM390.091 58.6L389.327 59.2453L389.327 59.2453L390.091 58.6ZM390.091 203.5L389.327 202.855L389.327 202.855L390.091 203.5ZM319.741 -0.850002C280.307 -0.850002 248.526 11.8354 224.859 37.2688L226.323 38.6312C249.556 13.6646 280.775 1.15 319.741 1.15V-0.850002ZM224.854 37.2738C201.228 63.0156 189.241 94.0596 189.241 131.05H191.241C191.241 94.5404 203.054 63.9844 226.328 38.6262L224.854 37.2738ZM189.241 131.05C189.241 168.039 201.228 199.086 224.859 224.481L226.323 223.119C203.055 198.114 191.241 167.561 191.241 131.05H189.241ZM224.854 224.476C248.523 250.264 280.307 262.95 319.741 262.95V260.95C280.776 260.95 249.56 248.436 226.328 223.124L224.854 224.476ZM319.741 262.95C359.176 262.95 390.96 250.264 414.628 224.476L413.154 223.124C389.923 248.436 358.707 260.95 319.741 260.95V262.95ZM414.623 224.481C438.255 199.086 450.241 168.039 450.241 131.05H448.241C448.241 167.561 436.428 198.114 413.159 223.119L414.623 224.481ZM450.241 131.05C450.241 94.0596 438.254 63.0156 414.628 37.2738L413.154 38.6262C436.429 63.9844 448.241 94.5404 448.241 131.05H450.241ZM414.623 37.2688C390.956 11.8354 359.175 -0.850002 319.741 -0.850002V1.15C358.707 1.15 389.926 13.6646 413.159 38.6312L414.623 37.2688ZM319.741 232.95C290.246 232.95 267.091 222.901 250.155 202.855L248.627 204.145C265.991 224.699 289.736 234.95 319.741 234.95V232.95ZM250.155 202.855C233.163 182.742 224.491 158.823 224.491 131.05H222.491C222.491 159.277 231.319 183.658 248.627 204.145L250.155 202.855ZM224.491 131.05C224.491 103.277 233.163 79.358 250.155 59.2453L248.627 57.9546C231.319 78.4419 222.491 102.823 222.491 131.05H224.491ZM250.155 59.2453C267.091 39.1988 290.246 29.15 319.741 29.15V27.15C289.736 27.15 265.991 37.4012 248.627 57.9546L250.155 59.2453ZM319.741 29.15C349.236 29.15 372.391 39.1988 389.327 59.2453L390.855 57.9546C373.491 37.4012 349.746 27.15 319.741 27.15V29.15ZM389.327 59.2453C406.319 79.358 414.991 103.277 414.991 131.05H416.991C416.991 102.823 408.163 78.4419 390.855 57.9546L389.327 59.2453ZM414.991 131.05C414.991 158.823 406.319 182.742 389.327 202.855L390.855 204.145C408.163 183.658 416.991 159.277 416.991 131.05H414.991ZM389.327 202.855C372.391 222.901 349.236 232.95 319.741 232.95V234.95C349.746 234.95 373.491 224.699 390.855 204.145L389.327 202.855ZM659.351 198.95L658.394 199.243L658.398 199.255L658.402 199.266L659.351 198.95ZM642.901 159.75L643.738 159.203L643.733 159.195L643.728 159.188L642.901 159.75ZM619.101 142.25L618.863 141.279L615.197 142.175L618.826 143.212L619.101 142.25ZM648.851 26.05L649.53 25.3165L649.522 25.3085L648.851 26.05ZM489.951 6.09998V5.09998H488.951V6.09998H489.951ZM489.951 256H488.951V257H489.951V256ZM523.201 256V257H524.201V256H523.201ZM523.201 153.8V152.8H522.201V153.8H523.201ZM605.801 164.3L606.542 163.629L606.525 163.611L606.508 163.593L605.801 164.3ZM623.651 196.15L622.714 196.501L622.717 196.509L623.651 196.15ZM629.601 215.4L630.564 215.13L630.561 215.12L629.601 215.4ZM636.951 238.15L637.889 237.804L637.889 237.804L636.951 238.15ZM645.701 256L644.869 256.555L645.165 257H645.701V256ZM683.501 256V257H684.501V256H683.501ZM683.501 252.5H684.501V252.149L684.281 251.875L683.501 252.5ZM673.001 235.7L673.905 235.274L673.895 235.253L673.884 235.232L673.001 235.7ZM666.351 219.95L667.306 219.656L667.296 219.623L667.284 219.591L666.351 219.95ZM523.201 125.8H522.201V126.8H523.201V125.8ZM523.201 34.1V33.1H522.201V34.1H523.201ZM623.651 112.85L624.358 113.557L624.358 113.557L623.651 112.85ZM660.307 198.657C655.049 181.482 649.766 168.423 643.738 159.203L642.064 160.297C647.935 169.277 653.152 182.118 658.394 199.243L660.307 198.657ZM643.728 159.188C637.653 150.254 629.412 144.156 619.375 141.288L618.826 143.212C628.389 145.944 636.248 151.746 642.074 160.312L643.728 159.188ZM619.338 143.221C635.306 139.318 647.752 131.142 657.342 118.711L655.759 117.489C646.449 129.558 634.395 137.482 618.863 141.279L619.338 143.221ZM657.342 118.711C666.928 106.285 671.551 92.4196 671.551 77.15H669.551C669.551 91.9804 665.073 105.415 655.759 117.489L657.342 118.711ZM671.551 77.15C671.551 56.2352 664.094 38.8149 649.53 25.3166L648.171 26.7834C662.307 39.8851 669.551 56.7648 669.551 77.15H671.551ZM649.522 25.3085C634.578 11.7882 613.304 5.09998 585.851 5.09998V7.09998C612.997 7.09998 633.723 13.7117 648.18 26.7915L649.522 25.3085ZM585.851 5.09998H489.951V7.09998H585.851V5.09998ZM488.951 6.09998V256H490.951V6.09998H488.951ZM489.951 257H523.201V255H489.951V257ZM524.201 256V153.8H522.201V256H524.201ZM523.201 154.8H574.651V152.8H523.201V154.8ZM574.651 154.8C588.142 154.8 598.345 158.259 605.093 165.007L606.508 163.593C599.256 156.341 588.459 152.8 574.651 152.8V154.8ZM605.059 164.971C611.596 172.195 617.49 182.57 622.714 196.501L624.587 195.799C619.311 181.73 613.306 171.105 606.542 163.629L605.059 164.971ZM622.717 196.509C624.448 201.008 626.181 207.248 628.641 215.68L630.561 215.12C628.12 206.752 626.353 200.392 624.584 195.791L622.717 196.509ZM628.638 215.67C631.095 224.448 633.554 231.823 636.012 238.496L637.889 237.804C635.447 231.177 633.006 223.852 630.564 215.13L628.638 215.67ZM636.012 238.496C638.48 245.194 641.312 251.22 644.869 256.555L646.533 255.445C643.089 250.28 640.321 244.406 637.889 237.804L636.012 238.496ZM645.701 257H683.501V255H645.701V257ZM684.501 256V252.5H682.501V256H684.501ZM684.281 251.875C680.129 246.685 676.671 241.152 673.905 235.274L672.096 236.126C674.93 242.148 678.472 247.815 682.72 253.125L684.281 251.875ZM673.884 235.232C670.762 229.335 668.687 224.143 667.306 219.656L665.395 220.244C666.814 224.857 668.939 230.165 672.117 236.168L673.884 235.232ZM667.284 219.591C665.544 215.068 663.466 208.133 660.299 198.634L658.402 199.266C661.535 208.667 663.657 215.732 665.417 220.309L667.284 219.591ZM524.201 125.8V34.1H522.201V125.8H524.201ZM523.201 35.1H582.351V33.1H523.201V35.1ZM582.351 35.1C600.446 35.1 613.833 38.6715 622.681 45.6478C631.484 52.5883 635.951 63.0258 635.951 77.15H637.951C637.951 62.5742 633.317 51.4866 623.92 44.0772C614.568 36.7035 600.655 33.1 582.351 33.1V35.1ZM635.951 77.15C635.951 91.9857 631.473 103.614 622.943 112.143L624.358 113.557C633.328 104.586 637.951 92.4142 637.951 77.15H635.951ZM622.943 112.143C614.452 120.634 601.457 124.8 584.451 124.8V126.8C601.745 126.8 615.349 122.566 624.358 113.557L622.943 112.143ZM584.451 124.8H523.201V126.8H584.451V124.8ZM882.145 6.09998H883.145V5.09998H882.145V6.09998ZM695.595 6.09998V5.09998H694.595V6.09998H695.595ZM695.595 34.1H694.595V35.1H695.595V34.1ZM772.245 34.1H773.245V33.1H772.245V34.1ZM772.245 256H771.245V257H772.245V256ZM805.495 256V257H806.495V256H805.495ZM805.495 34.1V33.1H804.495V34.1H805.495ZM882.145 34.1V35.1H883.145V34.1H882.145ZM882.145 5.09998H695.595V7.09998H882.145V5.09998ZM694.595 6.09998V34.1H696.595V6.09998H694.595ZM695.595 35.1H772.245V33.1H695.595V35.1ZM771.245 34.1V256H773.245V34.1H771.245ZM772.245 257H805.495V255H772.245V257ZM806.495 256V34.1H804.495V256H806.495ZM805.495 35.1H882.145V33.1H805.495V35.1ZM883.145 34.1V6.09998H881.145V34.1H883.145ZM1069.83 34.1V35.1H1070.83V34.1H1069.83ZM1069.83 6.09998H1070.83V5.09998H1069.83V6.09998ZM915.829 6.09998V5.09998H914.829V6.09998H915.829ZM915.829 256H914.829V257H915.829V256ZM949.079 256V257H950.079V256H949.079ZM949.079 142.95V141.95H948.079V142.95H949.079ZM1059.68 142.95V143.95H1060.68V142.95H1059.68ZM1059.68 114.95H1060.68V113.95H1059.68V114.95ZM949.079 114.95H948.079V115.95H949.079V114.95ZM949.079 34.1V33.1H948.079V34.1H949.079ZM1070.83 34.1V6.09998H1068.83V34.1H1070.83ZM1069.83 5.09998H915.829V7.09998H1069.83V5.09998ZM914.829 6.09998V256H916.829V6.09998H914.829ZM915.829 257H949.079V255H915.829V257ZM950.079 256V142.95H948.079V256H950.079ZM949.079 143.95H1059.68V141.95H949.079V143.95ZM1060.68 142.95V114.95H1058.68V142.95H1060.68ZM1059.68 113.95H949.079V115.95H1059.68V113.95ZM950.079 114.95V34.1H948.079V114.95H950.079ZM949.079 35.1H1069.83V33.1H949.079V35.1ZM1127.59 37.95L1126.86 37.2687L1126.86 37.2738L1127.59 37.95ZM1127.59 223.8L1128.33 223.124L1128.33 223.119L1127.59 223.8ZM1315.89 223.8L1315.16 223.119L1315.16 223.124L1315.89 223.8ZM1315.89 37.95L1316.63 37.2738L1316.63 37.2688L1315.89 37.95ZM1151.39 203.5L1150.63 204.145L1150.63 204.145L1151.39 203.5ZM1151.39 58.6L1152.16 59.2453L1152.16 59.2453L1151.39 58.6ZM1292.09 58.6L1291.33 59.2453L1291.33 59.2453L1292.09 58.6ZM1292.09 203.5L1291.33 202.855L1291.33 202.855L1292.09 203.5ZM1221.74 -0.850002C1182.31 -0.850002 1150.53 11.8354 1126.86 37.2688L1128.33 38.6312C1151.56 13.6646 1182.78 1.15 1221.74 1.15V-0.850002ZM1126.86 37.2738C1103.23 63.0156 1091.24 94.0596 1091.24 131.05H1093.24C1093.24 94.5404 1105.06 63.9844 1128.33 38.6262L1126.86 37.2738ZM1091.24 131.05C1091.24 168.039 1103.23 199.086 1126.86 224.481L1128.33 223.119C1105.06 198.114 1093.24 167.561 1093.24 131.05H1091.24ZM1126.86 224.476C1150.52 250.264 1182.31 262.95 1221.74 262.95V260.95C1182.78 260.95 1151.56 248.436 1128.33 223.124L1126.86 224.476ZM1221.74 262.95C1261.18 262.95 1292.96 250.264 1316.63 224.476L1315.16 223.124C1291.92 248.436 1260.71 260.95 1221.74 260.95V262.95ZM1316.63 224.481C1340.26 199.086 1352.24 168.039 1352.24 131.05H1350.24C1350.24 167.561 1338.43 198.114 1315.16 223.119L1316.63 224.481ZM1352.24 131.05C1352.24 94.0596 1340.26 63.0156 1316.63 37.2738L1315.16 38.6262C1338.43 63.9844 1350.24 94.5404 1350.24 131.05H1352.24ZM1316.63 37.2688C1292.96 11.8354 1261.18 -0.850002 1221.74 -0.850002V1.15C1260.71 1.15 1291.93 13.6646 1315.16 38.6312L1316.63 37.2688ZM1221.74 232.95C1192.25 232.95 1169.09 222.901 1152.16 202.855L1150.63 204.145C1167.99 224.699 1191.74 234.95 1221.74 234.95V232.95ZM1152.16 202.855C1135.17 182.742 1126.49 158.823 1126.49 131.05H1124.49C1124.49 159.277 1133.32 183.658 1150.63 204.145L1152.16 202.855ZM1126.49 131.05C1126.49 103.277 1135.17 79.358 1152.16 59.2453L1150.63 57.9546C1133.32 78.4419 1124.49 102.823 1124.49 131.05H1126.49ZM1152.16 59.2453C1169.09 39.1988 1192.25 29.15 1221.74 29.15V27.15C1191.74 27.15 1167.99 37.4012 1150.63 57.9546L1152.16 59.2453ZM1221.74 29.15C1251.24 29.15 1274.39 39.1988 1291.33 59.2453L1292.86 57.9546C1275.49 37.4012 1251.75 27.15 1221.74 27.15V29.15ZM1291.33 59.2453C1308.32 79.358 1316.99 103.277 1316.99 131.05H1318.99C1318.99 102.823 1310.17 78.4419 1292.86 57.9546L1291.33 59.2453ZM1316.99 131.05C1316.99 158.823 1308.32 182.742 1291.33 202.855L1292.86 204.145C1310.17 183.658 1318.99 159.277 1318.99 131.05H1316.99ZM1291.33 202.855C1274.39 222.901 1251.24 232.95 1221.74 232.95V234.95C1251.75 234.95 1275.49 224.699 1292.86 204.145L1291.33 202.855ZM1425.2 228H1424.2V229H1425.2V228ZM1425.2 6.09998H1426.2V5.09998H1425.2V6.09998ZM1391.95 6.09998V5.09998H1390.95V6.09998H1391.95ZM1391.95 256H1390.95V257H1391.95V256ZM1546.65 256V257H1547.65V256H1546.65ZM1546.65 228H1547.65V227H1546.65V228ZM1426.2 228V6.09998H1424.2V228H1426.2ZM1425.2 5.09998H1391.95V7.09998H1425.2V5.09998ZM1390.95 6.09998V256H1392.95V6.09998H1390.95ZM1391.95 257H1546.65V255H1391.95V257ZM1547.65 256V228H1545.65V256H1547.65ZM1546.65 227H1425.2V229H1546.65V227ZM1584.45 6.09998V5.09998H1583.45V6.09998H1584.45ZM1584.45 256H1583.45V257H1584.45V256ZM1617.7 256V257H1618.7V256H1617.7ZM1617.7 6.09998H1618.7V5.09998H1617.7V6.09998ZM1583.45 6.09998V256H1585.45V6.09998H1583.45ZM1584.45 257H1617.7V255H1584.45V257ZM1618.7 256V6.09998H1616.7V256H1618.7ZM1617.7 5.09998H1584.45V7.09998H1617.7V5.09998ZM1696.34 37.95L1695.61 37.2687L1695.61 37.2738L1696.34 37.95ZM1696.34 223.8L1697.08 223.124L1697.08 223.119L1696.34 223.8ZM1884.64 223.8L1883.91 223.119L1883.91 223.124L1884.64 223.8ZM1884.64 37.95L1885.38 37.2738L1885.38 37.2688L1884.64 37.95ZM1720.14 203.5L1719.38 204.145L1719.38 204.145L1720.14 203.5ZM1720.14 58.6L1720.91 59.2453L1720.91 59.2453L1720.14 58.6ZM1860.84 58.6L1860.08 59.2453L1860.08 59.2453L1860.84 58.6ZM1860.84 203.5L1860.08 202.855L1860.08 202.855L1860.84 203.5ZM1790.49 -0.850002C1751.06 -0.850002 1719.28 11.8354 1695.61 37.2688L1697.08 38.6312C1720.31 13.6646 1751.53 1.15 1790.49 1.15V-0.850002ZM1695.61 37.2738C1671.98 63.0156 1659.99 94.0596 1659.99 131.05H1661.99C1661.99 94.5404 1673.81 63.9844 1697.08 38.6262L1695.61 37.2738ZM1659.99 131.05C1659.99 168.039 1671.98 199.086 1695.61 224.481L1697.08 223.119C1673.81 198.114 1661.99 167.561 1661.99 131.05H1659.99ZM1695.61 224.476C1719.27 250.264 1751.06 262.95 1790.49 262.95V260.95C1751.53 260.95 1720.31 248.436 1697.08 223.124L1695.61 224.476ZM1790.49 262.95C1829.93 262.95 1861.71 250.264 1885.38 224.476L1883.91 223.124C1860.67 248.436 1829.46 260.95 1790.49 260.95V262.95ZM1885.38 224.481C1909.01 199.086 1920.99 168.039 1920.99 131.05H1918.99C1918.99 167.561 1907.18 198.114 1883.91 223.119L1885.38 224.481ZM1920.99 131.05C1920.99 94.0596 1909.01 63.0156 1885.38 37.2738L1883.91 38.6262C1907.18 63.9844 1918.99 94.5404 1918.99 131.05H1920.99ZM1885.38 37.2688C1861.71 11.8354 1829.93 -0.850002 1790.49 -0.850002V1.15C1829.46 1.15 1860.68 13.6646 1883.91 38.6312L1885.38 37.2688ZM1790.49 232.95C1761 232.95 1737.84 222.901 1720.91 202.855L1719.38 204.145C1736.74 224.699 1760.49 234.95 1790.49 234.95V232.95ZM1720.91 202.855C1703.92 182.742 1695.24 158.823 1695.24 131.05H1693.24C1693.24 159.277 1702.07 183.658 1719.38 204.145L1720.91 202.855ZM1695.24 131.05C1695.24 103.277 1703.92 79.358 1720.91 59.2453L1719.38 57.9546C1702.07 78.4419 1693.24 102.823 1693.24 131.05H1695.24ZM1720.91 59.2453C1737.84 39.1988 1761 29.15 1790.49 29.15V27.15C1760.49 27.15 1736.74 37.4012 1719.38 57.9546L1720.91 59.2453ZM1790.49 29.15C1819.99 29.15 1843.14 39.1988 1860.08 59.2453L1861.61 57.9546C1844.24 37.4012 1820.5 27.15 1790.49 27.15V29.15ZM1860.08 59.2453C1877.07 79.358 1885.74 103.277 1885.74 131.05H1887.74C1887.74 102.823 1878.92 78.4419 1861.61 57.9546L1860.08 59.2453ZM1885.74 131.05C1885.74 158.823 1877.07 182.742 1860.08 202.855L1861.61 204.145C1878.92 183.658 1887.74 159.277 1887.74 131.05H1885.74ZM1860.08 202.855C1843.14 222.901 1819.99 232.95 1790.49 232.95V234.95C1820.5 234.95 1844.24 224.699 1861.61 204.145L1860.08 202.855Z" fill="black"/>
</g>
</svg>
