<svg width="183" height="183" viewBox="0 0 183 183" fill="none" xmlns="http://www.w3.org/2000/svg">
<path d="M182.53 90.9363L141.947 79.9451C140.444 71.3024 136.686 63.4112 131.426 56.9292L137.532 46.3137C137.626 46.1258 137.626 45.8439 137.438 45.6561C137.25 45.4682 136.968 45.4682 136.78 45.5621L126.447 51.4805C119.871 45.4682 111.792 41.1468 102.773 39.268L92.0637 0.37577C91.9697 0.187885 91.7818 0 91.5 0C91.2182 0 91.0303 0.187885 90.9363 0.37577L80.3208 39.5498C71.5842 41.6165 63.693 45.9379 57.3989 51.9502L46.3137 45.5621C46.1258 45.4682 45.8439 45.4682 45.6561 45.6561C45.4682 45.8439 45.4682 46.1258 45.5621 46.3137L52.1381 57.6807C47.2531 63.9748 43.7772 71.3963 42.2741 79.5693L0.37577 90.9363C0.187885 91.0303 0 91.2182 0 91.5C0 91.7818 0.187885 91.9697 0.37577 92.0637L43.5893 103.806C45.75 110.664 49.2259 116.864 53.8291 122.125L45.4682 136.686C45.3742 136.874 45.3742 137.156 45.5621 137.344C45.75 137.532 46.0318 137.532 46.2197 137.438L61.0626 128.983C66.2295 133.023 72.2418 136.029 78.7238 137.814L90.8424 182.624C90.9363 182.906 91.1242 183 91.4061 183C91.6879 183 91.8758 182.812 91.9697 182.624L104.088 138.095C110.852 136.405 117.052 133.398 122.501 129.359L136.686 137.438C136.874 137.532 137.156 137.532 137.344 137.344C137.532 137.156 137.532 136.874 137.438 136.686L129.547 122.971C134.526 117.428 138.377 110.852 140.632 103.525L182.53 92.0637C182.812 91.9697 182.906 91.7818 182.906 91.5C183 91.2182 182.812 91.0303 182.53 90.9363ZM140.538 79.5693L121.374 74.4025L130.674 58.1504C135.559 64.2567 139.035 71.4902 140.538 79.5693ZM141.477 88.7757C141.477 89.4333 141.477 90.1848 141.383 90.8424H116.583L115.08 85.2998L120.81 75.3419L140.82 80.7906C141.196 83.4209 141.477 86.0513 141.477 88.7757ZM55.3321 121.843L62.7536 108.973L71.0205 111.228L57.8686 124.38C56.9292 123.534 56.0837 122.689 55.3321 121.843ZM42.6499 88.7757C42.6499 85.9574 42.9317 83.1391 43.4014 80.4148L62.1899 75.3419L67.9204 85.2998L66.4174 90.8424H42.7438C42.6499 90.1848 42.6499 89.5272 42.6499 88.7757ZM57.6807 53.3593L74.0267 62.7536L71.7721 71.0205L55.9897 55.1443C56.5534 54.5806 57.117 53.923 57.6807 53.3593ZM127.574 54.5806L111.134 71.0205L108.879 62.7536L125.883 52.9836C126.541 53.4533 127.104 54.0169 127.574 54.5806ZM92.8152 90.9363L103.619 80.133L109.819 90.9363H92.8152ZM109.913 92.0637L103.713 102.867L92.8152 92.0637H109.913ZM104.558 79.2875L110.664 73.1812L113.952 85.2058L110.946 90.3727L104.558 79.2875ZM103.713 78.442L92.6273 72.0539L97.7941 69.0477L109.819 72.3357L103.713 78.442ZM92.0637 71.1145V67.5447L96.2911 68.672L92.0637 71.1145ZM102.867 79.2875L92.0637 90.0909V73.0873L102.867 79.2875ZM102.867 103.713L92.0637 109.913V92.8152L102.867 103.713ZM92.6273 110.852L103.713 104.464L109.819 110.57L97.7941 113.858L92.6273 110.852ZM96.1971 114.234L91.9697 115.361V111.792L96.1971 114.234ZM104.558 103.713L110.946 92.6273L113.952 97.7941L110.664 109.819L104.558 103.713ZM114.61 99.2033L119.589 107.94L111.604 110.101L114.61 99.2033ZM114.234 96.1971L111.792 91.9697H115.361L114.234 96.1971ZM111.886 90.9363L114.328 86.7089L115.455 90.9363H111.886ZM111.698 72.8994L119.683 75.0601L114.704 83.7967L111.698 72.8994ZM111.979 71.7721L128.419 55.4261C128.983 55.9897 129.453 56.5534 129.922 57.211L120.246 74.1206L111.979 71.7721ZM110.101 71.3024L99.2033 68.3901L107.94 63.4112L110.101 71.3024ZM97.6063 67.9204L92.0637 66.4174V39.4559C95.3516 39.4559 98.5457 39.8316 101.74 40.3953L107.658 62.1899L97.6063 67.9204ZM73.0873 90.9363L79.2875 80.133L90.0909 90.9363H73.0873ZM90.0909 92.0637L79.2875 102.867L73.0873 92.0637H90.0909ZM79.2875 78.442L73.1812 72.3357L85.2058 69.0477L90.3727 72.0539L79.2875 78.442ZM78.442 79.2875L72.0539 90.3727L69.0477 85.2058L72.3357 73.1812L78.442 79.2875ZM68.2962 83.7967L63.3172 75.0601L71.3024 72.8994L68.2962 83.7967ZM68.672 86.7089L71.1145 90.9363H67.5447L68.672 86.7089ZM71.1145 92.0637L68.672 96.2911L67.5447 92.0637H71.1145ZM71.3024 110.101L63.3172 107.94L68.2962 99.2033L71.3024 110.101ZM69.1417 97.7941L72.1479 92.6273L78.5359 103.713L72.4297 109.819L69.1417 97.7941ZM79.2875 104.558L90.3727 110.946L85.2058 113.952L73.1812 110.664L79.2875 104.558ZM90.9363 111.886V115.455L86.7089 114.328L90.9363 111.886ZM80.039 103.713L90.8424 92.9091V109.913L80.039 103.713ZM80.039 79.2875L90.8424 73.0873V90.0909L80.039 79.2875ZM86.7089 68.672L90.9363 67.5447V71.1145L86.7089 68.672ZM85.2998 67.9204L75.3419 62.1899L81.1663 40.6771C84.2664 39.9256 87.5544 39.5498 90.8424 39.4559V66.4174L85.2998 67.9204ZM83.7967 68.2962L72.8994 71.2084L75.0601 63.2233L83.7967 68.2962ZM71.0205 71.7721L62.7536 74.0267L53.5472 57.9625C54.1109 57.3049 54.6745 56.6473 55.2382 55.9897L71.0205 71.7721ZM66.4174 92.0637L67.9204 97.6063L62.1899 107.564L44.7166 102.773C43.6833 99.2972 43.0257 95.7274 42.7438 91.9697H66.4174V92.0637ZM71.7721 111.979L74.0267 120.246L61.3445 127.48C60.405 126.728 59.4656 125.977 58.6201 125.131L71.7721 111.979ZM72.8994 111.698L83.7967 114.61L75.0601 119.589L72.8994 111.698ZM85.2998 115.08L90.8424 116.583V138.189C86.9908 138.095 83.2331 137.626 79.5693 136.686L75.2479 120.81L85.2998 115.08ZM92.0637 116.583L97.6063 115.08L107.564 120.81L103.149 136.968C99.5791 137.814 95.8214 138.283 91.9697 138.283V116.583H92.0637ZM99.2033 114.61L110.101 111.698L107.94 119.683L99.2033 114.61ZM111.134 111.979L124.85 125.695C124.004 126.447 123.159 127.198 122.219 127.856L108.973 120.246L111.134 111.979ZM111.979 111.134L120.246 108.879L128.044 122.501C127.292 123.347 126.541 124.098 125.695 124.85L111.979 111.134ZM115.08 97.6063L116.583 92.0637H141.383C141.196 95.6335 140.538 99.2033 139.599 102.491L120.904 107.564L115.08 97.6063ZM130.58 55.9897C130.11 55.52 129.735 54.9564 129.265 54.4867L134.244 49.5077L130.58 55.9897ZM133.492 48.6622L128.513 53.6412C128.044 53.1715 127.574 52.7017 127.198 52.326L133.492 48.6622ZM125.131 52.1381L108.691 61.6263L102.961 40.6771C111.322 42.556 118.931 46.5955 125.131 52.1381ZM92.0637 4.88501L101.364 38.9861C98.3578 38.4225 95.2577 38.1407 92.0637 38.1407V4.88501ZM90.9363 4.88501V38.2346C87.7423 38.3285 84.6422 38.7043 81.636 39.268L90.9363 4.88501ZM79.9451 40.9589L74.3085 61.6263L58.5262 52.6078C64.5385 47.0652 71.866 42.9317 79.9451 40.9589ZM56.5534 52.7017C56.0837 53.1715 55.52 53.7351 55.0503 54.2048L49.5077 48.6622L56.5534 52.7017ZM48.6622 49.4138L54.2988 55.0503C53.8291 55.614 53.3593 56.1776 52.8896 56.7413L48.6622 49.4138ZM52.7957 58.902L61.6263 74.3085L43.5893 79.1935C45.0924 71.6781 48.2864 64.8203 52.7957 58.902ZM41.9923 80.7906C41.6165 83.4209 41.3347 86.0513 41.3347 88.7757C41.3347 89.4333 41.3347 90.1848 41.4286 90.8424H4.88501L41.9923 80.7906ZM4.88501 92.0637H41.5226C41.7105 95.6335 42.3681 99.1093 43.3075 102.491L4.88501 92.0637ZM45.0924 104.182L61.6263 108.691L54.5806 120.998C50.3532 116.019 47.1591 110.382 45.0924 104.182ZM54.6745 122.971C55.4261 123.722 56.1776 124.474 56.9292 125.225L48.6622 133.492L54.6745 122.971ZM49.4138 134.338L57.6807 126.071C58.4322 126.822 59.2777 127.48 60.1232 128.232L49.4138 134.338ZM62.2839 128.232L74.3085 121.374L78.3481 136.311C72.5236 134.62 67.075 131.801 62.2839 128.232ZM80.039 138.002C83.5149 138.847 87.1786 139.317 90.9363 139.411V178.021L80.039 138.002ZM92.0637 178.115V139.505C95.7274 139.505 99.3912 139.129 102.867 138.377L92.0637 178.115ZM104.464 136.592L108.598 121.28L121.28 128.513C116.301 132.271 110.664 134.995 104.464 136.592ZM123.44 128.513C124.192 127.856 125.037 127.198 125.789 126.541L133.492 134.244L123.44 128.513ZM134.338 133.492L126.634 125.789C127.386 125.131 128.044 124.38 128.701 123.722L134.338 133.492ZM128.889 121.749L121.374 108.691L139.129 103.9C136.968 110.476 133.492 116.583 128.889 121.749ZM140.914 102.116C141.759 98.8275 142.323 95.5395 142.605 92.0637H178.115L140.914 102.116ZM142.699 90.9363C142.699 90.2787 142.793 89.5272 142.793 88.8696C142.793 86.2392 142.605 83.7028 142.229 81.1663L178.209 90.9363H142.699Z" fill="url(#paint0_linear_158_7)"/>
<defs>
<linearGradient id="paint0_linear_158_7" x1="91.4652" y1="0" x2="91.4652" y2="183" gradientUnits="userSpaceOnUse">
<stop stop-color="#B7A97F" stop-opacity="0.7"/>
<stop offset="0.390625" stop-color="#ECDDB1"/>
<stop offset="1" stop-color="#564B2E" stop-opacity="0.5"/>
</linearGradient>
</defs>
</svg>
