<svg aria-hidden="true" style="position: absolute; width: 0; height: 0; overflow: hidden;" version="1.1" xmlns="http://www.w3.org/2000/svg" xmlns:xlink="http://www.w3.org/1999/xlink">
<defs>
<symbol id="icon-Frame" viewBox="0 0 32 32">
<path d="M31.918 15.901l-7.097-1.922c-0.263-1.511-0.92-2.891-1.84-4.025l1.068-1.856c0.016-0.033 0.016-0.082-0.016-0.115s-0.082-0.033-0.115-0.016l-1.807 1.035c-1.15-1.051-2.563-1.807-4.14-2.136l-1.873-6.801c-0.016-0.033-0.049-0.066-0.099-0.066s-0.082 0.033-0.099 0.066l-1.856 6.85c-1.528 0.361-2.908 1.117-4.008 2.168l-1.938-1.117c-0.033-0.016-0.082-0.016-0.115 0.016s-0.033 0.082-0.016 0.115l1.15 1.988c-0.854 1.101-1.462 2.398-1.725 3.828l-7.327 1.988c-0.033 0.016-0.066 0.049-0.066 0.099s0.033 0.082 0.066 0.099l7.556 2.053c0.378 1.199 0.986 2.283 1.791 3.203l-1.462 2.546c-0.016 0.033-0.016 0.082 0.016 0.115s0.082 0.033 0.115 0.016l2.595-1.478c0.903 0.706 1.955 1.232 3.088 1.544l2.119 7.836c0.016 0.049 0.049 0.066 0.099 0.066s0.082-0.033 0.099-0.066l2.119-7.786c1.183-0.296 2.267-0.821 3.22-1.528l2.48 1.413c0.033 0.016 0.082 0.016 0.115-0.016s0.033-0.082 0.016-0.115l-1.38-2.398c0.871-0.969 1.544-2.119 1.938-3.4l7.326-2.004c0.049-0.016 0.066-0.049 0.066-0.099 0.016-0.049-0.016-0.082-0.066-0.099zM24.575 13.914l-3.351-0.903 1.626-2.842c0.854 1.068 1.462 2.333 1.725 3.745zM24.739 15.524c0 0.115 0 0.246-0.016 0.361h-4.337l-0.263-0.969 1.002-1.741 3.499 0.953c0.066 0.46 0.115 0.92 0.115 1.396zM9.676 21.306l1.298-2.251 1.446 0.394-2.3 2.3c-0.164-0.148-0.312-0.296-0.444-0.444zM7.458 15.524c0-0.493 0.049-0.986 0.131-1.462l3.285-0.887 1.002 1.741-0.263 0.969h-4.14c-0.016-0.115-0.016-0.23-0.016-0.361zM10.086 9.331l2.858 1.643-0.394 1.446-2.76-2.776c0.099-0.099 0.197-0.214 0.296-0.312zM22.308 9.544l-2.875 2.875-0.394-1.446 2.973-1.708c0.115 0.082 0.214 0.181 0.296 0.279zM16.23 15.901l1.889-1.889 1.084 1.889h-2.973zM19.22 16.099l-1.084 1.889-1.906-1.889h2.99zM18.283 13.864l1.068-1.068 0.575 2.103-0.526 0.903-1.117-1.938zM18.136 13.717l-1.938-1.117 0.904-0.526 2.103 0.575-1.068 1.068zM16.099 12.435v-0.624l0.739 0.197-0.739 0.427zM17.988 13.864l-1.889 1.889v-2.973l1.889 1.084zM17.988 18.136l-1.889 1.084v-2.99l1.889 1.906zM16.197 19.384l1.938-1.117 1.068 1.068-2.103 0.575-0.904-0.526zM16.821 19.975l-0.739 0.197v-0.624l0.739 0.427zM18.283 18.136l1.117-1.938 0.526 0.904-0.575 2.103-1.068-1.068zM20.041 17.347l0.871 1.528-1.396 0.378 0.526-1.906zM19.975 16.821l-0.427-0.739h0.624l-0.197 0.739zM19.565 15.901l0.427-0.739 0.197 0.739h-0.624zM19.532 12.747l1.396 0.378-0.871 1.528-0.526-1.906zM19.581 12.55l2.875-2.858c0.099 0.099 0.181 0.197 0.263 0.312l-1.692 2.957-1.446-0.411zM19.253 12.468l-1.906-0.509 1.528-0.871 0.378 1.38zM17.068 11.877l-0.969-0.263v-4.715c0.575 0 1.133 0.066 1.692 0.164l1.035 3.811-1.758 1.002zM12.78 15.901l1.084-1.889 1.889 1.889h-2.973zM15.754 16.099l-1.889 1.889-1.084-1.889h2.973zM13.864 13.717l-1.068-1.068 2.103-0.575 0.903 0.526-1.938 1.117zM13.717 13.864l-1.117 1.938-0.526-0.903 0.575-2.103 1.068 1.068zM11.943 14.653l-0.871-1.528 1.396-0.378-0.526 1.906zM12.008 15.162l0.427 0.739h-0.624l0.197-0.739zM12.435 16.099l-0.427 0.739-0.197-0.739h0.624zM12.468 19.253l-1.396-0.378 0.871-1.528 0.526 1.906zM12.090 17.101l0.526-0.904 1.117 1.938-1.068 1.068-0.575-2.103zM13.864 18.283l1.938 1.117-0.903 0.526-2.103-0.575 1.068-1.068zM15.901 19.565v0.624l-0.739-0.197 0.739-0.427zM13.996 18.136l1.889-1.889v2.973l-1.889-1.084zM13.996 13.864l1.889-1.084v2.973l-1.889-1.889zM15.162 12.008l0.739-0.197v0.624l-0.739-0.427zM14.916 11.877l-1.741-1.002 1.018-3.762c0.542-0.131 1.117-0.197 1.692-0.214v4.715l-0.969 0.263zM14.653 11.943l-1.906 0.509 0.378-1.396 1.528 0.887zM12.419 12.55l-1.446 0.394-1.61-2.809c0.099-0.115 0.197-0.23 0.296-0.345l2.76 2.76zM11.614 16.099l0.263 0.969-1.002 1.741-3.055-0.838c-0.181-0.608-0.296-1.232-0.345-1.889h4.14v0.016zM12.55 19.581l0.394 1.446-2.218 1.265c-0.164-0.131-0.329-0.263-0.476-0.411l2.3-2.3zM12.747 19.532l1.906 0.509-1.528 0.871-0.378-1.38zM14.916 20.123l0.969 0.263v3.778c-0.674-0.016-1.331-0.099-1.971-0.263l-0.756-2.776 1.758-1.002zM16.099 20.386l0.969-0.263 1.741 1.002-0.772 2.825c-0.624 0.148-1.281 0.23-1.955 0.23v-3.795h0.016zM17.347 20.041l1.906-0.509-0.378 1.396-1.528-0.887zM19.433 19.581l2.398 2.398c-0.148 0.131-0.296 0.263-0.46 0.378l-2.316-1.331 0.378-1.446zM19.581 19.433l1.446-0.394 1.363 2.382c-0.131 0.148-0.263 0.279-0.411 0.411l-2.398-2.398zM20.123 17.068l0.263-0.969h4.337c-0.033 0.624-0.148 1.248-0.312 1.823l-3.269 0.887-1.018-1.741zM22.834 9.791c-0.082-0.082-0.148-0.181-0.23-0.263l0.871-0.871-0.641 1.133zM23.343 8.509l-0.871 0.871c-0.082-0.082-0.164-0.164-0.23-0.23l1.101-0.641zM21.881 9.117l-2.875 1.659-1.002-3.663c1.462 0.329 2.793 1.035 3.877 2.004zM16.099 0.854l1.626 5.963c-0.526-0.099-1.068-0.148-1.626-0.148v-5.815zM15.901 0.854v5.832c-0.559 0.016-1.101 0.082-1.626 0.181l1.626-6.012zM13.979 7.162l-0.986 3.614-2.76-1.577c1.051-0.969 2.333-1.692 3.745-2.037zM9.889 9.216c-0.082 0.082-0.181 0.181-0.263 0.263l-0.969-0.969 1.232 0.706zM8.509 8.641l0.986 0.986c-0.082 0.099-0.164 0.197-0.246 0.296l-0.739-1.281zM9.232 10.3l1.544 2.694-3.154 0.854c0.263-1.314 0.821-2.513 1.61-3.548zM7.343 14.127c-0.066 0.46-0.115 0.92-0.115 1.396 0 0.115 0 0.246 0.016 0.361h-6.39l6.489-1.758zM0.854 16.099h6.407c0.033 0.624 0.148 1.232 0.312 1.823l-6.719-1.823zM7.885 18.218l2.891 0.788-1.232 2.152c-0.739-0.871-1.298-1.856-1.659-2.94zM9.561 21.503c0.131 0.131 0.263 0.263 0.394 0.394l-1.446 1.446 1.051-1.84zM8.641 23.491l1.446-1.446c0.131 0.131 0.279 0.246 0.427 0.378l-1.873 1.068zM10.891 22.423l2.103-1.199 0.706 2.612c-1.018-0.296-1.971-0.788-2.809-1.413zM13.996 24.131c0.608 0.148 1.248 0.23 1.906 0.246v6.751l-1.906-6.998zM16.099 31.146v-6.751c0.641 0 1.281-0.066 1.889-0.197l-1.889 6.949zM18.267 23.885l0.723-2.678 2.218 1.265c-0.871 0.657-1.856 1.133-2.94 1.413zM21.585 22.472c0.131-0.115 0.279-0.23 0.411-0.345l1.347 1.347-1.758-1.002zM23.491 23.343l-1.347-1.347c0.131-0.115 0.246-0.246 0.361-0.361l0.986 1.708zM22.538 21.29l-1.314-2.283 3.105-0.838c-0.378 1.15-0.986 2.218-1.791 3.121zM24.641 17.856c0.148-0.575 0.246-1.15 0.296-1.758h6.209l-6.505 1.758zM24.953 15.901c0-0.115 0.016-0.246 0.016-0.361 0-0.46-0.033-0.903-0.098-1.347l6.292 1.708h-6.21z"></path>
</symbol>
<symbol id="icon-inst" viewBox="0 0 32 32">
<path d="M16.144 2.818c4.181 0 4.676 0.018 6.32 0.092 1.528 0.067 2.353 0.324 2.903 0.538 0.727 0.281 1.253 0.623 1.797 1.167 0.55 0.55 0.886 1.070 1.167 1.797 0.214 0.55 0.471 1.381 0.538 2.903 0.073 1.65 0.092 2.145 0.092 6.32 0 4.181-0.018 4.676-0.092 6.32-0.067 1.528-0.324 2.353-0.538 2.903-0.281 0.727-0.623 1.253-1.167 1.797-0.55 0.55-1.070 0.886-1.797 1.167-0.55 0.214-1.381 0.471-2.903 0.538-1.65 0.073-2.145 0.092-6.32 0.092-4.181 0-4.676-0.018-6.32-0.092-1.528-0.067-2.353-0.324-2.903-0.538-0.727-0.281-1.253-0.623-1.797-1.167-0.55-0.55-0.886-1.070-1.167-1.797-0.214-0.55-0.471-1.381-0.538-2.903-0.073-1.65-0.092-2.145-0.092-6.32 0-4.181 0.018-4.676 0.092-6.32 0.067-1.528 0.324-2.353 0.538-2.903 0.281-0.727 0.623-1.253 1.167-1.797 0.55-0.55 1.070-0.886 1.797-1.167 0.55-0.214 1.381-0.471 2.903-0.538 1.644-0.073 2.139-0.092 6.32-0.092zM16.144 0c-4.248 0-4.78 0.018-6.448 0.092-1.662 0.073-2.805 0.342-3.796 0.727-1.033 0.403-1.907 0.935-2.775 1.809-0.874 0.868-1.406 1.742-1.809 2.769-0.385 0.996-0.654 2.133-0.727 3.796-0.073 1.675-0.092 2.206-0.092 6.454s0.018 4.78 0.092 6.448c0.073 1.662 0.342 2.805 0.727 3.796 0.403 1.033 0.935 1.907 1.809 2.775 0.868 0.868 1.742 1.406 2.769 1.803 0.996 0.385 2.133 0.654 3.796 0.727 1.669 0.073 2.2 0.092 6.448 0.092s4.78-0.018 6.448-0.092c1.662-0.073 2.805-0.342 3.796-0.727 1.027-0.397 1.901-0.935 2.769-1.803s1.406-1.742 1.803-2.769c0.385-0.996 0.654-2.133 0.727-3.796 0.073-1.669 0.092-2.2 0.092-6.448s-0.018-4.78-0.092-6.448c-0.073-1.662-0.342-2.805-0.727-3.796-0.385-1.039-0.917-1.913-1.791-2.781-0.868-0.868-1.742-1.406-2.769-1.803-0.996-0.385-2.133-0.654-3.796-0.727-1.675-0.079-2.206-0.098-6.454-0.098z"></path>
<path d="M16.144 7.61c-4.437 0-8.037 3.6-8.037 8.037s3.6 8.037 8.037 8.037c4.437 0 8.037-3.6 8.037-8.037s-3.6-8.037-8.037-8.037zM16.144 20.861c-2.879 0-5.213-2.335-5.213-5.214s2.335-5.214 5.213-5.214c2.879 0 5.214 2.335 5.214 5.214s-2.335 5.214-5.214 5.214z"></path>
<path d="M26.376 7.291c0 1.039-0.844 1.876-1.876 1.876-1.039 0-1.876-0.843-1.876-1.876 0-1.039 0.843-1.876 1.876-1.876s1.876 0.843 1.876 1.876z"></path>
</symbol>
<symbol id="icon-twit" viewBox="0 0 32 32">
<path d="M10.067 28.181c12.073 0 18.677-9.358 18.677-17.47 0-0.263-0.006-0.532-0.019-0.795 1.285-0.869 2.394-1.946 3.274-3.179-1.197 0.498-2.467 0.823-3.768 0.965 1.37-0.768 2.395-1.975 2.887-3.396-1.289 0.714-2.698 1.218-4.167 1.49-0.99-0.984-2.299-1.636-3.725-1.854s-2.889 0.009-4.163 0.646c-1.274 0.637-2.288 1.649-2.885 2.88s-0.745 2.611-0.419 3.927c-2.609-0.122-5.162-0.756-7.493-1.861s-4.387-2.655-6.036-4.55c-0.838 1.352-1.095 2.951-0.717 4.473s1.36 2.853 2.748 3.721c-1.042-0.031-2.062-0.293-2.974-0.766v0.076c-0.001 1.418 0.523 2.793 1.484 3.891s2.297 1.851 3.784 2.13c-0.966 0.247-1.979 0.283-2.962 0.105 0.419 1.22 1.236 2.287 2.335 3.052s2.426 1.19 3.795 1.216c-2.325 1.708-5.198 2.635-8.154 2.631-0.524-0.001-1.048-0.031-1.569-0.090 3.004 1.802 6.498 2.76 10.067 2.758z"></path>
</symbol>
<symbol id="icon-st" viewBox="0 0 32 32">
<path d="M29.744 29.744h0.974v0.974h-0.974v-0.974zM1.28 2.658c-0.38-0.38-0.38-0.997 0-1.377s0.997-0.38 1.377 0l-1.377 1.377zM30.718 0.762v28.982h-1.948v-28.982h1.948zM29.744 30.718h-28.982v-1.948h28.982v1.948zM29.055 30.433l-27.775-27.775 1.377-1.377 27.775 27.775-1.377 1.377z"></path>
</symbol>
<symbol id="icon-tel" viewBox="0 0 32 32">
<path d="M7.408 2.211l0.464-0.343c0.646-0.478 1.557-0.342 2.035 0.304l3.982 5.378c0.478 0.646 0.342 1.557-0.304 2.035l-2.165 1.603c-0.313 0.232-0.443 0.638-0.322 1.008 1.397 4.281 4.146 7.993 7.832 10.579 0.319 0.224 0.745 0.218 1.058-0.013l2.165-1.603c0.646-0.478 1.556-0.342 2.034 0.304l3.982 5.378c0.478 0.646 0.342 1.556-0.304 2.034l-0.464 0.343c-3.491 2.584-8.35 2.208-11.402-0.882l-3.249-3.289c-2.228-2.256-4.123-4.816-5.63-7.605l-2.198-4.067c-2.065-3.821-1.005-8.579 2.485-11.163z"></path>
</symbol>
<symbol id="icon-fase" viewBox="0 0 32 32">
<path d="M23.283 17.801l0.869-5.474h-5.434v-3.551c0-1.498 0.759-2.959 3.193-2.959h2.471v-4.66c0 0-2.242-0.37-4.386-0.37-4.476 0-7.401 2.622-7.401 7.368v4.172h-4.975v5.474h4.975v13.233c2.029 0.307 4.094 0.307 6.123 0v-13.233h4.566z"></path>
</symbol>
<symbol id="icon-fases" viewBox="0 0 17 32">
<path  d="M15.664 17.801l0.869-5.474h-5.434v-3.551c0-1.498 0.759-2.959 3.193-2.959h2.471v-4.66c0 0-2.242-0.37-4.386-0.37-4.476 0-7.401 2.622-7.401 7.368v4.172h-4.975v5.474h4.975v13.233c2.029 0.307 4.094 0.307 6.123 0v-13.233h4.566z"></path>
</symbol>
<symbol id="icon-st-9" viewBox="0 0 56 32">
<path d="M52 4l-24 24-24-24"></path>
</symbol>
<symbol id="icon-Vec-str" viewBox="0 0 32 32">
<path d="M29.476 29.671h1.333v1.333h-1.333v-1.333zM0.666 2.747c-0.521-0.521-0.521-1.365 0-1.886s1.365-0.521 1.886 0l-1.886 1.886zM30.809 0.593v29.079h-2.667v-29.079h2.667zM29.476 31.005h-29.079v-2.667h29.079v2.667zM28.533 30.614l-27.867-27.867 1.886-1.886 27.867 27.867-1.886 1.886z"></path>
</symbol>
<symbol id="icon-star" viewBox="0 0 32 32">
<path d="M31.918 15.901l-7.096-1.922c-0.263-1.511-0.92-2.891-1.84-4.025l1.068-1.856c0.016-0.033 0.016-0.082-0.016-0.115s-0.082-0.033-0.115-0.016l-1.807 1.035c-1.15-1.051-2.563-1.807-4.14-2.136l-1.873-6.801c-0.016-0.033-0.049-0.066-0.099-0.066s-0.082 0.033-0.099 0.066l-1.856 6.85c-1.528 0.361-2.908 1.117-4.008 2.168l-1.938-1.117c-0.033-0.016-0.082-0.016-0.115 0.016s-0.033 0.082-0.016 0.115l1.15 1.988c-0.854 1.101-1.462 2.398-1.725 3.828l-7.326 1.988c-0.033 0.016-0.066 0.049-0.066 0.099s0.033 0.082 0.066 0.099l7.556 2.053c0.378 1.199 0.986 2.283 1.791 3.203l-1.462 2.546c-0.016 0.033-0.016 0.082 0.016 0.115s0.082 0.033 0.115 0.016l2.595-1.478c0.903 0.706 1.955 1.232 3.088 1.544l2.119 7.836c0.016 0.049 0.049 0.066 0.099 0.066s0.082-0.033 0.099-0.066l2.119-7.787c1.183-0.296 2.267-0.821 3.22-1.528l2.48 1.413c0.033 0.016 0.082 0.016 0.115-0.016s0.033-0.082 0.016-0.115l-1.38-2.398c0.871-0.969 1.544-2.119 1.938-3.4l7.326-2.004c0.049-0.016 0.066-0.049 0.066-0.099 0.016-0.049-0.016-0.082-0.066-0.099zM24.575 13.914l-3.351-0.903 1.626-2.842c0.854 1.068 1.462 2.333 1.725 3.745zM24.739 15.524c0 0.115 0 0.246-0.016 0.361h-4.337l-0.263-0.969 1.002-1.741 3.499 0.953c0.066 0.46 0.115 0.92 0.115 1.396zM9.676 21.306l1.298-2.25 1.446 0.394-2.3 2.3c-0.164-0.148-0.312-0.296-0.444-0.444zM7.458 15.524c0-0.493 0.049-0.986 0.131-1.462l3.285-0.887 1.002 1.741-0.263 0.969h-4.14c-0.016-0.115-0.016-0.23-0.016-0.361zM10.086 9.331l2.858 1.643-0.394 1.446-2.76-2.776c0.099-0.099 0.197-0.214 0.296-0.312zM22.308 9.544l-2.875 2.875-0.394-1.446 2.973-1.708c0.115 0.082 0.213 0.181 0.296 0.279zM16.23 15.901l1.889-1.889 1.084 1.889h-2.973zM19.22 16.099l-1.084 1.889-1.906-1.889h2.99zM18.283 13.864l1.068-1.068 0.575 2.103-0.526 0.903-1.117-1.938zM18.136 13.717l-1.938-1.117 0.903-0.526 2.103 0.575-1.068 1.068zM16.099 12.435v-0.624l0.739 0.197-0.739 0.427zM17.988 13.864l-1.889 1.889v-2.973l1.889 1.084zM17.988 18.136l-1.889 1.084v-2.99l1.889 1.906zM16.197 19.384l1.938-1.117 1.068 1.068-2.103 0.575-0.903-0.526zM16.821 19.975l-0.739 0.197v-0.624l0.739 0.427zM18.283 18.136l1.117-1.938 0.526 0.903-0.575 2.103-1.068-1.068zM20.041 17.347l0.871 1.528-1.396 0.378 0.526-1.906zM19.975 16.821l-0.427-0.739h0.624l-0.197 0.739zM19.565 15.901l0.427-0.739 0.197 0.739h-0.624zM19.532 12.747l1.396 0.378-0.871 1.528-0.526-1.906zM19.581 12.55l2.875-2.858c0.099 0.099 0.181 0.197 0.263 0.312l-1.692 2.957-1.446-0.411zM19.253 12.468l-1.906-0.509 1.528-0.871 0.378 1.38zM17.068 11.877l-0.969-0.263v-4.715c0.575 0 1.133 0.066 1.692 0.164l1.035 3.811-1.758 1.002zM12.78 15.901l1.084-1.889 1.889 1.889h-2.973zM15.754 16.099l-1.889 1.889-1.084-1.889h2.973zM13.864 13.717l-1.068-1.068 2.103-0.575 0.903 0.526-1.938 1.117zM13.717 13.864l-1.117 1.938-0.526-0.903 0.575-2.103 1.068 1.068zM11.943 14.653l-0.871-1.528 1.396-0.378-0.526 1.906zM12.008 15.162l0.427 0.739h-0.624l0.197-0.739zM12.435 16.099l-0.427 0.739-0.197-0.739h0.624zM12.468 19.253l-1.396-0.378 0.871-1.528 0.526 1.906zM12.090 17.101l0.526-0.903 1.117 1.938-1.068 1.068-0.575-2.103zM13.864 18.283l1.938 1.117-0.903 0.526-2.103-0.575 1.068-1.068zM15.901 19.565v0.624l-0.739-0.197 0.739-0.427zM13.996 18.136l1.889-1.889v2.973l-1.889-1.084zM13.996 13.864l1.889-1.084v2.973l-1.889-1.889zM15.162 12.008l0.739-0.197v0.624l-0.739-0.427zM14.916 11.877l-1.741-1.002 1.018-3.762c0.542-0.131 1.117-0.197 1.692-0.214v4.715l-0.969 0.263zM14.653 11.943l-1.906 0.509 0.378-1.396 1.528 0.887zM12.419 12.55l-1.446 0.394-1.61-2.809c0.099-0.115 0.197-0.23 0.296-0.345l2.76 2.76zM11.614 16.099l0.263 0.969-1.002 1.741-3.055-0.838c-0.181-0.608-0.296-1.232-0.345-1.889h4.14v0.016zM12.55 19.581l0.394 1.446-2.218 1.265c-0.164-0.131-0.329-0.263-0.476-0.411l2.3-2.3zM12.747 19.532l1.906 0.509-1.528 0.871-0.378-1.38zM14.916 20.123l0.969 0.263v3.778c-0.674-0.016-1.331-0.098-1.971-0.263l-0.756-2.776 1.758-1.002zM16.099 20.386l0.969-0.263 1.741 1.002-0.772 2.825c-0.624 0.148-1.281 0.23-1.955 0.23v-3.795h0.016zM17.347 20.041l1.906-0.509-0.378 1.396-1.528-0.887zM19.433 19.581l2.398 2.398c-0.148 0.131-0.296 0.263-0.46 0.378l-2.316-1.331 0.378-1.446zM19.581 19.433l1.446-0.394 1.364 2.382c-0.131 0.148-0.263 0.279-0.411 0.411l-2.398-2.398zM20.123 17.068l0.263-0.969h4.337c-0.033 0.624-0.148 1.248-0.312 1.823l-3.269 0.887-1.018-1.741zM22.834 9.791c-0.082-0.082-0.148-0.181-0.23-0.263l0.871-0.871-0.641 1.133zM23.343 8.509l-0.871 0.871c-0.082-0.082-0.164-0.164-0.23-0.23l1.101-0.641zM21.881 9.117l-2.875 1.659-1.002-3.663c1.462 0.329 2.793 1.035 3.877 2.004zM16.099 0.854l1.626 5.963c-0.526-0.099-1.068-0.148-1.626-0.148v-5.815zM15.901 0.854v5.832c-0.559 0.016-1.101 0.082-1.626 0.181l1.626-6.012zM13.979 7.162l-0.986 3.614-2.76-1.577c1.051-0.969 2.333-1.692 3.745-2.037zM9.889 9.216c-0.082 0.082-0.181 0.181-0.263 0.263l-0.969-0.969 1.232 0.706zM8.509 8.641l0.986 0.986c-0.082 0.099-0.164 0.197-0.246 0.296l-0.739-1.281zM9.232 10.3l1.544 2.694-3.154 0.854c0.263-1.314 0.821-2.513 1.61-3.548zM7.343 14.127c-0.066 0.46-0.115 0.92-0.115 1.396 0 0.115 0 0.246 0.016 0.361h-6.39l6.489-1.758zM0.854 16.099h6.407c0.033 0.624 0.148 1.232 0.312 1.823l-6.719-1.823zM7.885 18.218l2.891 0.788-1.232 2.152c-0.739-0.871-1.298-1.856-1.659-2.941zM9.561 21.503c0.131 0.131 0.263 0.263 0.394 0.394l-1.446 1.446 1.051-1.84zM8.641 23.491l1.446-1.446c0.131 0.131 0.279 0.246 0.427 0.378l-1.873 1.068zM10.891 22.423l2.103-1.199 0.706 2.612c-1.018-0.296-1.971-0.789-2.809-1.413zM13.996 24.131c0.608 0.148 1.248 0.23 1.906 0.246v6.751l-1.906-6.998zM16.099 31.146v-6.751c0.641 0 1.281-0.066 1.889-0.197l-1.889 6.949zM18.267 23.885l0.723-2.678 2.218 1.265c-0.871 0.657-1.856 1.133-2.941 1.413zM21.585 22.472c0.131-0.115 0.279-0.23 0.411-0.345l1.347 1.347-1.758-1.002zM23.491 23.343l-1.347-1.347c0.131-0.115 0.247-0.246 0.361-0.361l0.986 1.708zM22.538 21.289l-1.314-2.283 3.105-0.838c-0.378 1.15-0.986 2.218-1.791 3.121zM24.641 17.856c0.148-0.575 0.246-1.15 0.296-1.758h6.209l-6.505 1.758zM24.953 15.901c0-0.115 0.016-0.246 0.016-0.361 0-0.46-0.033-0.903-0.099-1.347l6.292 1.708h-6.209z"></path>
</symbol>
</defs>
</svg>
