<svg width="24" height="24" viewBox="0 0 24 24" fill="none" xmlns="http://www.w3.org/2000/svg">
<path d="M6.59321 1.51975L6.91196 1.28377C7.35584 0.955155 7.98207 1.04859 8.31068 1.49247L11.048 5.18986C11.3766 5.63374 11.2831 6.25998 10.8393 6.58859L9.35095 7.69043C9.13573 7.84976 9.04662 8.12894 9.12971 8.3835C10.0905 11.3267 11.9799 13.8789 14.5144 15.6569C14.7337 15.8107 15.0267 15.807 15.2419 15.6477L16.7302 14.5458C17.1741 14.2172 17.8003 14.3106 18.1289 14.7545L20.8662 18.4519C21.1948 18.8958 21.1014 19.522 20.6575 19.8506L20.3388 20.0866C17.939 21.8633 14.5979 21.6049 12.4997 19.4805L10.2663 17.2191C8.73482 15.6684 7.43152 13.908 6.3955 11.9906L4.88457 9.19427C3.46516 6.56731 4.19339 3.2964 6.59321 1.51975Z" stroke="white"/>
</svg>
