<svg width="113" height="97" viewBox="0 0 113 97" fill="none" xmlns="http://www.w3.org/2000/svg">
<path d="M52.7407 48.5C52.7407 46.0584 50.7505 44.1716 48.4286 44.1716C45.9961 44.1716 44.1165 46.1693 44.1165 48.5C44.1165 50.9417 46.1067 52.8284 48.4286 52.8284C50.7505 52.9394 52.7407 50.9417 52.7407 48.5ZM45.5538 48.5C45.5538 46.9462 46.8806 45.6144 48.4286 45.6144C49.9765 45.6144 51.3033 46.9462 51.3033 48.5C51.3033 50.0538 49.9765 51.3856 48.4286 51.3856C46.7701 51.3856 45.5538 50.0538 45.5538 48.5Z" fill="url(#paint0_linear_165_48)"/>
<path d="M59.7065 48.5C59.7065 55.27 65.2349 60.8192 71.9795 60.8192C78.7242 60.8192 84.2525 55.27 84.2525 48.5C84.2525 41.73 78.7242 36.1808 71.9795 36.1808C65.2349 36.1808 59.7065 41.73 59.7065 48.5ZM82.9257 48.5C82.9257 54.4931 78.0607 59.3764 72.0901 59.3764C66.1195 59.3764 61.2545 54.4931 61.2545 48.5C61.2545 42.5069 66.1195 37.6236 72.0901 37.6236C78.0607 37.6236 82.9257 42.5069 82.9257 48.5Z" fill="url(#paint1_linear_165_48)"/>
<path d="M48.3179 37.1796C55.0625 37.1796 60.5909 31.6304 60.5909 24.8604C60.5909 18.0903 55.0625 12.5411 48.3179 12.5411C41.5733 12.5411 36.0449 18.0903 36.0449 24.8604C36.0449 31.6304 41.5733 37.1796 48.3179 37.1796ZM48.3179 13.8729C54.2886 13.8729 59.1535 18.7562 59.1535 24.7494C59.1535 30.7425 54.2886 35.6258 48.3179 35.6258C42.3473 35.6258 37.4823 30.7425 37.4823 24.7494C37.4823 18.7562 42.3473 13.8729 48.3179 13.8729Z" fill="url(#paint2_linear_165_48)"/>
<path d="M36.0449 72.3616C36.0449 79.1316 41.5733 84.6808 48.3179 84.6808C55.0625 84.6808 60.5909 79.1316 60.5909 72.3616C60.5909 65.5916 55.0625 60.0424 48.3179 60.0424C41.5733 60.0424 36.0449 65.4806 36.0449 72.3616ZM48.3179 61.3742C54.2886 61.3742 59.1535 66.2575 59.1535 72.2506C59.1535 78.2437 54.3991 83.238 48.3179 83.238C42.2367 83.238 37.4823 78.3547 37.4823 72.3616C37.4823 66.3684 42.3473 61.3742 48.3179 61.3742Z" fill="url(#paint3_linear_165_48)"/>
<path d="M12.3835 48.5C12.3835 55.27 17.9119 60.8192 24.6565 60.8192C31.4012 60.8192 36.9295 55.27 36.9295 48.5C36.9295 41.73 31.4012 36.1808 24.6565 36.1808C17.9119 36.1808 12.3835 41.73 12.3835 48.5ZM35.4922 48.5C35.4922 54.4931 30.6272 59.3764 24.6565 59.3764C18.6859 59.3764 13.8209 54.4931 13.8209 48.5C13.8209 42.5069 18.6859 37.6236 24.6565 37.6236C30.6272 37.6236 35.4922 42.5069 35.4922 48.5Z" fill="url(#paint4_linear_165_48)"/>
<path d="M112.337 14.095C111.341 14.5389 110.236 14.9828 109.02 15.3158C101.28 17.3135 95.4198 13.873 76.7339 7.32494C73.638 6.2151 68.773 4.21739 62.8024 2.33066C62.6918 2.33066 62.6918 2.33066 62.5812 2.21968C62.5812 2.21968 62.5812 2.21968 62.4706 2.21968C58.048 0.776888 53.2935 0 48.318 0C21.6712 0 0 21.7529 0 48.5C0 75.2471 21.6712 97 48.318 97C74.9648 97 96.636 75.2471 96.636 48.5C96.636 32.2963 88.6751 17.8684 76.4022 9.10069C97.8523 16.7586 103.27 18.3124 109.02 16.9805C110.015 16.7586 111.341 16.3146 112.889 15.6487L112.337 14.095ZM95.3092 48.5C95.3092 74.5812 74.3014 95.6682 48.318 95.6682C22.3346 95.6682 1.32681 74.5812 1.32681 48.5C1.32681 22.4188 22.3346 1.33181 48.318 1.33181C53.4041 1.33181 58.3797 2.1087 62.9129 3.66247L65.0137 4.43936C82.7045 11.2094 95.3092 28.4119 95.3092 48.5Z" fill="url(#paint5_linear_165_48)"/>
<path d="M48.3179 92.3387C24.2142 92.3387 4.7543 72.6945 4.7543 48.611C4.7543 30.5206 15.7005 14.9829 31.2905 8.32383L30.7377 7.21399C14.7054 13.984 3.42749 29.9657 3.42749 48.5C3.42749 73.3604 23.5508 93.5595 48.3179 93.5595C67.3355 93.5595 83.5889 81.6842 90.1124 64.8147L89.0068 64.2598C82.7044 80.6854 66.8932 92.3387 48.3179 92.3387Z" fill="url(#paint6_linear_165_48)"/>
<defs>
<linearGradient id="paint0_linear_165_48" x1="48.4295" y1="44.169" x2="48.4295" y2="52.8391" gradientUnits="userSpaceOnUse">
<stop stop-color="#AB8D60"/>
<stop offset="0.0682425" stop-color="#B29466"/>
<stop offset="0.5057" stop-color="#DBC087"/>
<stop offset="1" stop-color="#AB8D60"/>
</linearGradient>
<linearGradient id="paint1_linear_165_48" x1="71.9821" y1="36.1733" x2="71.9821" y2="60.8372" gradientUnits="userSpaceOnUse">
<stop stop-color="#AB8D60"/>
<stop offset="0.0682425" stop-color="#B29466"/>
<stop offset="0.5057" stop-color="#DBC087"/>
<stop offset="1" stop-color="#AB8D60"/>
</linearGradient>
<linearGradient id="paint2_linear_165_48" x1="48.3204" y1="12.5337" x2="48.3204" y2="37.1976" gradientUnits="userSpaceOnUse">
<stop stop-color="#AB8D60"/>
<stop offset="0.0682425" stop-color="#B29466"/>
<stop offset="0.5057" stop-color="#DBC087"/>
<stop offset="1" stop-color="#AB8D60"/>
</linearGradient>
<linearGradient id="paint3_linear_165_48" x1="48.3204" y1="60.0349" x2="48.3204" y2="84.6988" gradientUnits="userSpaceOnUse">
<stop stop-color="#AB8D60"/>
<stop offset="0.0682425" stop-color="#B29466"/>
<stop offset="0.5057" stop-color="#DBC087"/>
<stop offset="1" stop-color="#AB8D60"/>
</linearGradient>
<linearGradient id="paint4_linear_165_48" x1="24.6591" y1="36.1733" x2="24.6591" y2="60.8372" gradientUnits="userSpaceOnUse">
<stop stop-color="#AB8D60"/>
<stop offset="0.0682425" stop-color="#B29466"/>
<stop offset="0.5057" stop-color="#DBC087"/>
<stop offset="1" stop-color="#AB8D60"/>
</linearGradient>
<linearGradient id="paint5_linear_165_48" x1="56.4564" y1="-0.0293331" x2="56.4564" y2="97.0709" gradientUnits="userSpaceOnUse">
<stop stop-color="#AB8D60"/>
<stop offset="0.0682425" stop-color="#B29466"/>
<stop offset="0.5057" stop-color="#DBC087"/>
<stop offset="1" stop-color="#AB8D60"/>
</linearGradient>
<linearGradient id="paint6_linear_165_48" x1="46.7789" y1="7.18788" x2="46.7789" y2="93.6226" gradientUnits="userSpaceOnUse">
<stop stop-color="#AB8D60"/>
<stop offset="0.0682425" stop-color="#B29466"/>
<stop offset="0.5057" stop-color="#DBC087"/>
<stop offset="1" stop-color="#AB8D60"/>
</linearGradient>
</defs>
</svg>
